<svg width="259" height="90" viewBox="0 0 259 90" fill="none" xmlns="http://www.w3.org/2000/svg">
<path d="M147.035 10.7034V16.9849L159.22 21.7296L147.035 26.2432V32.7097L167.904 24.2876V19.0778L147.035 10.7034Z" fill="#BD00FF"/>
<path d="M219.546 50.8059H228.698C228.556 47.2239 226.922 45.6886 224.216 45.6886C222.068 45.6886 220.108 46.8513 219.546 50.8059ZM224.403 66.2968C217.353 66.2968 212.545 62.1096 212.545 54.0153V53.5517C212.545 45.4098 217.632 40.9438 224.167 40.9438C230.237 40.9438 235.326 44.3381 235.326 52.3875V55.3195H219.454C219.736 59.6917 221.6 61.3671 224.542 61.3671C227.156 61.3671 228.556 59.9718 229.025 58.204H235.326C234.581 62.8086 230.798 66.2968 224.403 66.2968ZM196.248 41.4565H203.064V45.9211C204.51 42.6641 206.799 41.1301 210.394 41.1301V47.8277C205.771 47.8277 203.064 49.223 203.064 53.2715V65.7869H196.248V41.4565ZM191.298 65.7869H184.48V62.2034C183.313 64.5303 181.026 66.2968 177.382 66.2968C172.996 66.2968 169.772 63.6449 169.772 57.9252V41.4565H176.637V56.9011C176.637 59.6917 177.756 60.9945 180.185 60.9945C182.565 60.9945 184.48 59.5054 184.48 56.4823V41.4565H191.298V65.7869ZM160.948 34.1047V41.4565H165.617V46.5235H160.948V58.0625C160.948 59.8794 161.787 60.7157 163.374 60.7157C164.356 60.7157 165.102 60.5756 165.756 60.2983V65.5992C164.963 65.8331 163.608 66.1105 161.926 66.1105C156.607 66.1105 154.083 63.6926 154.083 58.7601V46.5235H151.235V41.4565H154.083V36.8953L160.948 34.1047ZM126.63 41.4565H133.445V45.0848C134.662 42.8042 137.088 40.9438 140.823 40.9438C145.259 40.9438 148.2 43.5957 148.2 49.5031V65.7869H141.381V50.5258C141.381 47.689 140.216 46.4324 137.742 46.4324C135.36 46.4324 133.445 47.8753 133.445 50.946V65.7869H126.63V41.4565ZM106.645 50.8059H115.795C115.656 47.2239 114.021 45.6886 111.313 45.6886C109.167 45.6886 107.206 46.8513 106.645 50.8059ZM111.502 66.2968C104.45 66.2968 99.6422 62.1096 99.6422 54.0153V53.5517C99.6422 45.4098 104.731 40.9438 111.267 40.9438C117.336 40.9438 122.427 44.3381 122.427 52.3875V55.3195H106.552C106.832 59.6917 108.7 61.3671 111.64 61.3671C114.254 61.3671 115.656 59.9718 116.123 58.204H122.427C121.677 62.8086 117.897 66.2968 111.502 66.2968ZM85.9128 66.2968C79.1437 66.2968 74.2416 62.1096 74.2416 53.8753V53.5517C74.2416 45.3173 79.4699 40.9438 85.9592 40.9438C91.515 40.9438 96.091 43.7357 96.652 50.1069H90.1148C89.6945 47.7366 88.4813 46.2013 86.0998 46.2013C83.2038 46.2013 81.1976 48.4791 81.1976 53.2715V54.0153C81.1976 58.9478 82.9718 61.1808 86.1476 61.1808C88.4813 61.1808 90.2076 59.4591 90.5816 56.8073H96.7911C96.3244 62.3421 92.5427 66.2968 85.9128 66.2968ZM60.5122 66.2968C53.7431 66.2968 48.8409 62.1096 48.8409 53.8753V53.5517C48.8409 45.3173 54.0692 40.9438 60.5586 40.9438C66.1144 40.9438 70.6904 43.7357 71.2513 50.1069H64.7142C64.2939 47.7366 63.0806 46.2013 60.6992 46.2013C57.8031 46.2013 55.797 48.4791 55.797 53.2715V54.0153C55.797 58.9478 57.5712 61.1808 60.747 61.1808C63.0806 61.1808 64.807 59.4591 65.181 56.8073H71.3905C70.9238 62.3421 67.1421 66.2968 60.5122 66.2968ZM38.2395 57.6912V55.3658H35.5305C32.1706 55.3658 30.4442 56.296 30.4442 58.4813V58.7139C30.4442 60.3893 31.4719 61.552 33.7577 61.552C36.0928 61.552 38.2395 60.2506 38.2395 57.6912ZM31.7038 66.2968C27.3162 66.2968 23.6737 64.0652 23.6737 59.1313V58.8554C23.6737 52.8512 28.902 50.8984 35.2058 50.8984H38.2395V49.7371C38.2395 47.3164 37.1655 45.8272 34.6448 45.8272C32.3575 45.8272 31.1443 47.1301 30.9559 48.9918H24.4202C24.8869 43.5957 29.1818 40.9438 34.9724 40.9438C40.8544 40.9438 45.0564 43.4556 45.0564 49.5031V65.7869H38.3801V62.9935C37.2119 64.7628 34.9724 66.2968 31.7038 66.2968Z" fill="black"/>
</svg>
