<svg width="259" height="90" viewBox="0 0 259 90" fill="none" xmlns="http://www.w3.org/2000/svg">
<path d="M67.8546 20L88.3585 69V20H67.8546ZM33 20V69L53.5039 20H33ZM51.7458 59.0075H61.1085L65.2175 68.9795H73.7012L60.5361 37.8964L51.7458 59.0075Z" fill="#ED2224"/>
<path d="M109.462 51.6157L107.213 58.3934C107.132 58.6391 107.009 58.721 106.764 58.721H102.655C102.409 58.721 102.328 58.5981 102.369 58.3115L110.832 34.2108C110.995 33.8012 111.118 33.3917 111.2 31.9993C111.2 31.8355 111.281 31.7126 111.445 31.7126H117.148C117.353 31.7126 117.394 31.7536 117.435 31.9584L126.92 58.3729C126.961 58.6186 126.92 58.7415 126.675 58.7415H122.075C121.871 58.7415 121.748 58.6596 121.666 58.4958L119.275 51.6362H109.462V51.6157ZM117.966 47.1314C117.108 44.408 115.166 38.6951 114.348 35.8284H114.307C113.653 38.5927 111.997 43.4047 110.77 47.1314H117.966Z" fill="#2D2E2D"/>
<path d="M128.392 48.7694C128.392 42.8108 132.828 38.0398 140.065 38.0398C140.637 38.0398 141.128 38.0807 141.823 38.1626V29.7264C141.823 29.5216 141.904 29.4397 142.068 29.4397H146.545C146.749 29.4397 146.749 29.5216 146.749 29.6854V54.5233C146.749 55.3423 146.831 56.4071 146.913 57.1647C146.913 57.3695 146.872 57.4514 146.668 57.5333C143.99 58.68 141.373 59.1305 138.899 59.1305C132.951 59.1509 128.392 55.6904 128.392 48.7694ZM141.823 42.4832C141.291 42.2784 140.637 42.1965 139.901 42.1965C136.242 42.1965 133.503 44.5513 133.503 48.5237C133.503 53.008 136.181 54.8509 139.451 54.8509C140.269 54.8509 141.087 54.769 141.843 54.5233V42.4832H141.823Z" fill="#2D2E2D"/>
<path d="M170.442 48.4828C170.442 54.8509 166.374 59.1305 160.589 59.1305C153.72 59.1305 150.695 53.8271 150.695 48.6056C150.695 42.7698 154.518 38.0398 160.671 38.0398C167.008 38.0398 170.442 42.8517 170.442 48.4828ZM155.703 48.5237C155.703 52.3118 157.543 54.9328 160.671 54.9328C163.226 54.9328 165.393 52.8442 165.393 48.6056C165.393 45.1861 163.921 42.1965 160.425 42.1965C157.686 42.1965 155.703 44.6127 155.703 48.5237Z" fill="#2D2E2D"/>
<path d="M178.905 29.4397C179.192 29.4397 179.273 29.4807 179.273 29.7673L179.314 38.6131C180.418 38.2445 181.706 38.0398 183.055 38.0398C188.963 38.0398 192.745 42.2374 192.745 47.7456C192.745 55.3628 186.837 59.1305 180.745 59.1305C178.619 59.1305 176.555 58.8438 174.592 58.2295C174.429 58.1886 174.306 57.9838 174.306 57.8609V29.7264C174.306 29.5216 174.429 29.4397 174.592 29.4397H178.905ZM182.197 42.2784C180.766 42.2784 179.989 42.4832 179.314 42.7289V54.7485C179.887 54.9123 180.5 54.9533 181.195 54.9533C184.568 54.9533 187.675 52.8237 187.675 48.2575C187.696 44.326 185.447 42.2784 182.197 42.2784Z" fill="#2D2E2D"/>
<path d="M200.677 49.7318C200.799 52.619 202.68 54.9124 206.871 54.9124C208.711 54.9124 210.407 54.5847 211.961 53.9295C212.084 53.8476 212.206 53.8886 212.206 54.0933V57.5129C212.206 57.7586 212.125 57.8814 211.961 57.9634C210.407 58.7005 208.588 59.151 205.808 59.151C198.326 59.151 195.668 53.8886 195.668 48.8309C195.668 43.118 199.123 38.0603 205.317 38.0603C211.389 38.0603 213.74 42.8313 213.74 46.7423C213.74 47.889 213.699 48.8309 213.576 49.3018C213.535 49.4657 213.453 49.5476 213.249 49.5885C212.677 49.7114 211.041 49.7523 209.017 49.7523H200.677V49.7318ZM206.789 46.1894C208.343 46.1894 208.874 46.1894 209.038 46.1485C209.038 46.0256 209.038 45.8618 209.038 45.8209C209.038 44.6332 208.22 41.9918 205.092 41.9918C202.251 41.9918 200.983 44.1623 200.656 46.1894H206.789Z" fill="#2D2E2D"/>
</svg>
