<svg width="259" height="90" viewBox="0 0 259 90" fill="none" xmlns="http://www.w3.org/2000/svg">
<path fill-rule="evenodd" clip-rule="evenodd" d="M151.497 66.7949C140.718 74.758 125.039 79.0001 111.517 79.0001C92.572 79.0001 75.5872 72.0164 62.6525 60.3988C61.6726 59.4854 62.5219 58.245 63.763 58.9629C77.6775 67.056 94.8585 71.8859 112.627 71.8859C124.582 71.8859 137.778 69.4058 149.929 64.2495C151.757 63.5316 153.26 65.4896 151.497 66.7949H151.497Z" fill="#FF9900"/>
<path fill-rule="evenodd" clip-rule="evenodd" d="M156.004 61.6387C154.633 59.8765 146.859 60.7901 143.397 61.2471C142.351 61.3775 142.155 60.4639 143.135 59.8111C149.341 55.4382 159.467 56.7434 160.643 58.1794C161.819 59.6153 160.316 69.7963 154.501 74.6268C153.587 75.3447 152.737 74.9531 153.13 73.9741C154.437 70.7106 157.376 63.4656 156.004 61.6387Z" fill="#FF9900"/>
<path fill-rule="evenodd" clip-rule="evenodd" d="M143.592 29.1361V24.8927C143.585 24.7536 143.607 24.6145 143.657 24.4844C143.707 24.3544 143.784 24.2362 143.882 24.1377C143.981 24.0392 144.099 23.9626 144.229 23.9127C144.359 23.8629 144.498 23.8409 144.638 23.8483H163.583C163.868 23.8423 164.144 23.9484 164.351 24.1437C164.559 24.339 164.682 24.6079 164.693 24.8927V28.4824C164.693 29.0698 164.171 29.8526 163.256 31.1585L153.457 45.1258C157.115 45.0605 160.97 45.5826 164.236 47.4095C164.955 47.8011 165.15 48.4539 165.216 49.0413V53.5447C165.216 54.1974 164.563 54.9149 163.844 54.5237C158.03 51.456 150.256 51.1297 143.855 54.589C143.201 54.9153 142.483 54.2627 142.483 53.61V49.3028C142.483 48.6501 142.483 47.4758 143.202 46.4311L154.569 30.1795H144.703C144.418 30.1855 144.142 30.0796 143.934 29.8845C143.727 29.6894 143.604 29.4207 143.592 29.1361ZM74.5423 55.4379H68.7936C68.536 55.412 68.294 55.3021 68.1051 55.1251C67.9162 54.9482 67.7908 54.7141 67.7483 54.4589V24.958C67.7596 24.6733 67.8822 24.4044 68.0899 24.2091C68.2976 24.0138 68.5736 23.9077 68.8588 23.9137H74.2155C74.4805 23.9177 74.7344 24.0202 74.9276 24.2012C75.1209 24.3823 75.2397 24.6288 75.2608 24.8927V28.7435H75.3914C76.7628 25.0233 79.4417 23.2611 82.9693 23.2611C86.5623 23.2611 88.8486 25.0233 90.4166 28.7435C91.7881 25.0233 94.9895 23.2611 98.3869 23.2611C100.804 23.2611 103.417 24.2401 105.05 26.5246C106.879 29.0047 106.488 32.5944 106.488 35.7926V54.4591C106.476 54.7438 106.354 55.0127 106.146 55.208C105.938 55.4033 105.662 55.5094 105.377 55.5035H99.693C99.105 55.4381 98.6477 54.9814 98.6477 54.4591V38.7947C98.6477 37.5546 98.7783 34.4218 98.5171 33.247C98.0599 31.289 96.8187 30.7015 95.1201 30.7015C94.3701 30.7229 93.6428 30.9629 93.0276 31.3919C92.4124 31.821 91.9362 32.4205 91.6577 33.1165C91.0698 34.6176 91.1352 37.0978 91.1352 38.7947V54.4591C91.1239 54.7438 91.0012 55.0127 90.7936 55.208C90.5859 55.4033 90.3098 55.5094 90.0247 55.5035H84.276C83.688 55.4381 83.2307 54.9814 83.2307 54.4591V38.7947C83.2307 35.5312 83.7532 30.6362 79.7031 30.6362C75.5876 30.6362 75.7182 35.3354 75.7182 38.7947V54.4591C75.6771 54.7383 75.5344 54.9925 75.3175 55.1731C75.1005 55.3538 74.8245 55.4481 74.5423 55.4381V55.4379ZM181.025 23.2611C189.582 23.2611 194.221 30.5711 194.221 39.9044C194.221 48.9114 189.125 56.0907 181.025 56.0907C172.663 56.0907 168.09 48.7807 168.09 39.6432C168.025 30.4404 172.663 23.2603 181.025 23.2603V23.2611ZM181.025 29.3309C176.778 29.3309 176.517 35.1398 176.517 38.7296C176.517 42.3193 176.452 50.0209 180.959 50.0209C185.402 50.0209 185.663 43.8204 185.663 40.0348C185.663 37.5546 185.532 34.5524 184.814 32.2026C184.16 30.1139 182.854 29.3309 181.025 29.3309ZM205.261 55.4379H199.512C198.924 55.3726 198.467 54.9159 198.467 54.3936V24.8269C198.503 24.5574 198.635 24.31 198.839 24.1301C199.043 23.9502 199.305 23.85 199.577 23.8479H204.934C205.177 23.8565 205.411 23.944 205.599 24.0971C205.788 24.2502 205.921 24.4607 205.98 24.6965V29.1999H206.11C207.743 25.1532 209.964 23.2605 213.949 23.2605C216.497 23.2605 219.045 24.174 220.678 26.7198C222.18 29.0694 222.18 33.0508 222.18 35.9226V54.5239C222.141 54.7863 222.006 55.0249 221.801 55.1936C221.596 55.3623 221.335 55.4491 221.07 55.4373H215.321C214.798 55.372 214.341 54.9806 214.275 54.5239V38.4684C214.275 35.205 214.667 30.5054 210.682 30.5054C209.311 30.5054 208.004 31.4188 207.351 32.855C206.567 34.6819 206.436 36.4447 206.436 38.468V54.3942C206.4 54.6809 206.261 54.9446 206.045 55.1366C205.828 55.3287 205.55 55.4359 205.261 55.4385L205.261 55.4379ZM128.502 41.3403C128.502 43.5594 128.568 45.4521 127.457 47.4764C126.543 49.1082 125.105 50.0872 123.472 50.0872C121.251 50.0872 119.945 48.3903 119.945 45.91C119.945 41.015 124.321 40.1012 128.502 40.1012V41.3403ZM134.317 55.3728C134.13 55.5352 133.898 55.6351 133.652 55.6585C133.406 55.6819 133.159 55.6276 132.945 55.5033C131.051 53.9369 130.659 53.1537 129.613 51.6524C126.478 54.8495 124.191 55.8295 120.141 55.8295C115.307 55.8295 111.518 52.8272 111.518 46.8878C111.518 42.1886 114.066 39.0558 117.66 37.4892C120.795 36.119 125.173 35.8575 128.504 35.4659V34.748C128.504 33.3778 128.634 31.7457 127.785 30.5709C127.067 29.5265 125.76 29.0698 124.585 29.0698C122.364 29.0698 120.404 30.1793 119.947 32.5291C119.816 33.0512 119.49 33.5734 118.967 33.5734L113.414 32.986C112.957 32.8556 112.434 32.5293 112.565 31.8112C113.871 25.0233 119.947 23 125.434 23C128.243 23 131.902 23.7179 134.123 25.8717C136.932 28.4824 136.67 32.0078 136.67 35.7924V44.734C136.67 47.4101 137.781 48.5849 138.826 50.086C139.218 50.6081 139.283 51.2608 138.826 51.5871C137.585 52.5661 135.495 54.3936 134.319 55.3726L134.317 55.3728ZM53.0498 41.3403C53.0498 43.5594 53.1152 45.4521 52.0045 47.4764C51.0902 49.1082 49.6528 50.0872 48.0196 50.0872C45.7985 50.0872 44.492 48.3903 44.492 45.91C44.492 41.015 48.8689 40.1012 53.0498 40.1012V41.3403ZM58.7985 55.3728C58.6124 55.5352 58.3799 55.6351 58.1338 55.6585C57.8878 55.6819 57.6406 55.6276 57.4271 55.5033C55.5327 53.9369 55.1414 53.1537 54.0955 51.6524C50.9599 54.8495 48.6733 55.8295 44.6232 55.8295C39.789 55.8295 36 52.8272 36 46.8878C36 42.1886 38.5477 39.0558 42.1417 37.4892C45.2773 36.119 49.6548 35.8575 52.9858 35.4659V34.748C52.9858 33.3778 53.1164 31.7457 52.2673 30.5709C51.5488 29.5265 50.2421 29.0698 49.0673 29.0698C46.8461 29.0698 44.8864 30.1793 44.429 32.5291C44.2984 33.0512 43.9719 33.5734 43.4491 33.5734L37.8964 32.986C37.4392 32.8556 36.9165 32.5293 37.0471 31.8112C38.3535 25.0233 44.429 23 49.9164 23C52.7254 23 56.3836 23.7179 58.6048 25.8717C61.4138 28.4824 61.1525 32.0078 61.1525 35.7924V44.734C61.1525 47.4101 62.2629 48.5849 63.3082 50.086C63.7002 50.6081 63.7653 51.2608 63.3082 51.5871C62.0669 52.5661 59.9766 54.3936 58.8007 55.3726L58.7985 55.3728Z" fill="black"/>
</svg>
