<svg width="259" height="90" viewBox="0 0 259 90" fill="none" xmlns="http://www.w3.org/2000/svg">
<path fill-rule="evenodd" clip-rule="evenodd" d="M103.18 44.2938C104.666 43.7186 105.942 42.7031 106.835 41.3831C107.728 40.0632 108.197 38.5019 108.179 36.9081C108.179 30.261 103.464 26.9658 96.9871 26.9658H80V63.1102H98.4642C104.145 63.1102 109.713 59.1333 109.713 53.0543C109.713 45.8277 103.18 44.3619 103.18 44.2938ZM88.8628 34.4651H95.4531C95.8751 34.439 96.2981 34.4963 96.698 34.6338C97.0978 34.7713 97.4665 34.9863 97.7832 35.2666C98.0998 35.5468 98.358 35.8867 98.5431 36.2668C98.7282 36.6469 98.8366 37.0598 98.8619 37.4819C98.8619 37.6107 98.8619 37.7413 98.8619 37.8739C98.844 38.7625 98.4757 39.608 97.8372 40.2262C97.1987 40.8445 96.3418 41.1854 95.4531 41.1747H88.806L88.8628 34.4651ZM95.5099 55.5427H88.9196V48.4411H95.3395C98.5778 48.4411 100.112 49.8614 100.112 51.9635C100.112 54.5883 98.1801 55.5427 95.5099 55.5427Z" fill="#ED0007"/>
<path fill-rule="evenodd" clip-rule="evenodd" d="M129.257 26.0569C118.803 26.0569 112.667 34.4084 112.667 44.9756C112.667 55.5428 118.803 63.8943 129.257 63.8943C139.71 63.8943 145.846 55.5996 145.846 44.9756C145.846 34.3516 139.767 26.0569 129.257 26.0569ZM129.257 55.2587C124.144 55.2587 121.587 50.6569 121.587 44.9756C121.587 39.2943 124.144 34.7493 129.257 34.7493C134.37 34.7493 136.983 39.3511 136.983 44.9756C136.983 50.7137 134.37 55.2587 129.257 55.2587Z" fill="#ED0007"/>
<path fill-rule="evenodd" clip-rule="evenodd" d="M165.106 41.1691L163.856 40.885C160.788 40.26 158.345 39.4647 158.345 37.249C158.345 34.8628 160.674 33.897 162.72 33.897C164.115 33.9178 165.491 34.2262 166.762 34.8029C168.033 35.3797 169.171 36.2124 170.105 37.249L175.73 31.6813C173.173 28.7838 169.026 26 162.549 26C154.936 26 149.141 30.261 149.141 37.3626C149.141 43.8393 153.8 47.0208 159.481 48.2139L160.731 48.4979C165.447 49.4637 167.208 50.2023 167.208 52.4748C167.208 54.6337 165.276 56.054 162.322 56.054C158.8 56.054 155.618 54.5201 153.175 51.3954L147.437 57.0767C150.619 60.8831 154.652 63.8374 162.436 63.8374C169.196 63.8374 176.412 59.9741 176.412 52.0771C176.525 43.8393 170.276 42.2485 165.106 41.1691Z" fill="#ED0007"/>
<path fill-rule="evenodd" clip-rule="evenodd" d="M196.637 55.2588C192.66 55.2588 188.513 51.9637 188.513 44.7484C188.513 38.3285 192.376 34.7493 196.41 34.7493C199.591 34.7493 201.466 36.2265 202.943 38.7831L210.215 33.954C206.579 28.4431 202.261 26.1138 196.296 26.1138C185.388 26.1138 179.479 34.5789 179.479 44.8052C179.479 55.5429 186.013 63.9512 196.182 63.9512C203.341 63.9512 206.75 61.4514 210.443 56.111L203.114 51.1796C201.637 53.5544 200.046 55.2588 196.637 55.2588Z" fill="#ED0007"/>
<path fill-rule="evenodd" clip-rule="evenodd" d="M234.474 26.9658V40.26H223.509V26.9658H214.022V63.0988H223.509V48.8388H234.474V63.0988H243.962V26.9658H234.474Z" fill="#ED0007"/>
<path d="M41.3838 18C35.9678 18 30.6735 19.606 26.1702 22.615C21.667 25.624 18.1571 29.9008 16.0845 34.9045C14.0119 39.9082 13.4696 45.4142 14.5262 50.7262C15.5828 56.0381 18.1909 60.9174 22.0206 64.7471C25.8502 68.5768 30.7296 71.1849 36.0415 72.2415C41.3535 73.2981 46.8594 72.7558 51.8632 70.6832C56.8669 68.6106 61.1437 65.1007 64.1527 60.5975C67.1616 56.0942 68.7677 50.7998 68.7677 45.3838C68.7677 38.1212 65.8826 31.156 60.7471 26.0205C55.6117 20.8851 48.6465 18 41.3838 18ZM41.3838 70.2111C36.4735 70.2111 31.6734 68.755 27.5906 66.0269C23.5077 63.2989 20.3256 59.4214 18.4465 54.8848C16.5673 50.3482 16.0757 45.3563 17.0336 40.5403C17.9916 35.7243 20.3562 31.3005 23.8283 27.8283C27.3005 24.3562 31.7243 21.9916 36.5403 21.0336C41.3563 20.0757 46.3482 20.5673 50.8848 22.4464C55.4214 24.3256 59.2989 27.5077 62.027 31.5906C64.755 35.6734 66.2111 40.4735 66.2111 45.3838C66.2096 51.968 63.5934 58.282 58.9377 62.9377C54.282 67.5934 47.968 70.2096 41.3838 70.2111Z" fill="black"/>
<path d="M52.6897 28.2832H50.8149V37.6573H32.0098V28.2832H30.0781C27.2489 30.1497 24.927 32.689 23.3204 35.6735C21.7139 38.658 20.8729 41.9945 20.8729 45.3839C20.8729 48.7733 21.7139 52.1098 23.3204 55.0943C24.927 58.0788 27.2489 60.6181 30.0781 62.4846H32.0098V53.1218H50.8149V62.496H52.6897C55.5201 60.6304 57.8432 58.0914 59.4507 55.1068C61.0581 52.1222 61.8995 48.7852 61.8995 45.3953C61.8995 42.0053 61.0581 38.6684 59.4507 35.6837C57.8432 32.6991 55.5201 30.1601 52.6897 28.2946V28.2832ZM29.3964 58.8031C27.6344 57.2375 26.1981 55.3402 25.1694 53.2195C24.1407 51.0988 23.5398 48.7962 23.4011 46.4433C23.2623 44.0904 23.5884 41.7331 24.3607 39.5062C25.133 37.2793 26.3364 35.2263 27.9022 33.4645C28.3715 32.9403 28.8704 32.4433 29.3964 31.976V58.8031ZM50.8149 50.5084H32.0098V40.2139H50.8149V50.5084ZM53.3714 58.7463V53.065V37.6573V31.976C55.1291 33.5543 56.5585 35.4635 57.5781 37.5944C58.5976 39.7254 59.1873 42.0363 59.3134 44.3952C59.4395 46.7541 59.0996 49.1148 58.313 51.3423C57.5264 53.5698 56.3087 55.6204 54.7293 57.3771C54.2997 57.8522 53.8465 58.3053 53.3714 58.7349V58.7463Z" fill="black"/>
</svg>
