<svg width="259" height="90" viewBox="0 0 259 90" fill="none" xmlns="http://www.w3.org/2000/svg">
<path d="M223.54 58.4731C223.54 55.4208 226.018 52.9443 229.069 52.9443C232.121 52.9443 234.596 55.4208 234.596 58.4731C234.596 61.5254 232.121 64.0002 229.069 64.0002C226.018 64.0002 223.54 61.5254 223.54 58.4731Z" fill="#86BC24"/>
<path d="M47.2192 43.8311C47.2192 40.3293 46.5426 37.7313 45.1892 36.0388C43.8341 34.3478 41.7815 33.5031 39.022 33.5031H36.0865V54.9174H38.3324C41.3976 54.9174 43.6437 54.0088 45.0739 52.185C46.5024 50.3645 47.2192 47.5793 47.2192 43.8311ZM57.6878 43.4664C57.6878 49.8462 55.9729 54.7622 52.543 58.2128C49.1132 61.6651 44.2916 63.3913 38.0765 63.3913H26V25.1621H38.9195C44.9122 25.1621 49.5386 26.7314 52.7989 29.8686C56.0577 33.0073 57.6878 37.5377 57.6878 43.4664Z" fill="#0F0B0B"/>
<path d="M91.1398 63.3908H100.75V25.0017H91.1398V63.3908Z" fill="#0F0B0B"/>
<path d="M114.249 49.0714C114.249 51.5191 114.569 53.3859 115.207 54.6689C115.847 55.9535 116.919 56.595 118.426 56.595C119.917 56.595 120.971 55.9535 121.585 54.6689C122.2 53.3859 122.505 51.5191 122.505 49.0714C122.505 46.6366 122.195 44.8001 121.573 43.5603C120.949 42.3173 119.885 41.695 118.377 41.695C116.902 41.695 115.847 42.3141 115.207 43.5459C114.569 44.7793 114.249 46.6206 114.249 49.0714ZM132.286 49.0714C132.286 53.7347 131.064 57.3725 128.613 59.9801C126.164 62.5893 122.736 63.8947 118.328 63.8947C114.102 63.8947 110.738 62.5605 108.24 59.8921C105.74 57.2237 104.491 53.6179 104.491 49.0714C104.491 44.4226 105.715 40.8103 108.165 38.2347C110.616 35.6591 114.052 34.3713 118.477 34.3713C121.211 34.3713 123.63 34.9681 125.726 36.1599C127.823 37.3517 129.442 39.0586 130.579 41.2823C131.718 43.5027 132.286 46.1007 132.286 49.0714Z" fill="#0F0B0B"/>
<path d="M136.103 63.391H145.714V48.6989V34.8755H136.103V63.391Z" fill="#0F0B0B"/>
<path d="M136.102 31.4262H145.714V25H136.102V31.4262Z" fill="#0F0B0B"/>
<path d="M165.186 56.1176C166.483 56.1176 168.028 55.7881 169.831 55.1338V62.3086C168.535 62.8781 167.304 63.2861 166.133 63.5276C164.962 63.7724 163.587 63.894 162.015 63.894C158.788 63.894 156.462 63.0829 155.033 61.464C153.611 59.845 152.898 57.359 152.898 54.0044V42.2494H149.532V34.8778H152.898V27.5957L162.583 25.9111V34.8778H168.715V42.2494H162.583V53.3485C162.583 55.1946 163.451 56.1176 165.186 56.1176Z" fill="#0F0B0B"/>
<path d="M187.43 56.1176C188.727 56.1176 190.273 55.7881 192.076 55.1338V62.3086C190.782 62.8781 189.548 63.2861 188.377 63.5276C187.204 63.7724 185.835 63.894 184.259 63.894C181.033 63.894 178.707 63.0829 177.281 61.464C175.856 59.845 175.142 57.359 175.142 54.0044V42.2494H171.775V34.8778H175.142V27.4853L184.826 25.9111V34.8778H190.961V42.2494H184.826V53.3485C184.826 55.1946 185.694 56.1176 187.43 56.1176Z" fill="#0F0B0B"/>
<path d="M204.203 45.5975C204.334 44.0361 204.78 42.8923 205.542 42.1612C206.307 41.4317 207.25 41.067 208.38 41.067C209.612 41.067 210.591 41.4765 211.317 42.302C212.048 43.1227 212.429 44.2217 212.459 45.5975H204.203ZM217.756 37.7332C215.471 35.4935 212.23 34.3721 208.037 34.3721C203.63 34.3721 200.239 35.6599 197.861 38.2354C195.486 40.811 194.297 44.5065 194.297 49.3217C194.297 53.985 195.582 57.5812 198.145 60.1056C200.709 62.63 204.31 63.8938 208.948 63.8938C211.174 63.8938 213.091 63.7419 214.697 63.4395C216.294 63.1404 217.839 62.5996 219.338 61.8189L217.861 55.3927C216.772 55.8375 215.735 56.1798 214.756 56.4054C213.342 56.7333 211.791 56.8981 210.101 56.8981C208.249 56.8981 206.786 56.4454 205.715 55.5399C204.643 54.6329 204.072 53.3819 204.006 51.7885H221.184V47.41C221.184 43.1979 220.042 39.9712 217.756 37.7332Z" fill="#0F0B0B"/>
<path d="M70.4421 45.5975C70.5733 44.0361 71.0196 42.8923 71.781 42.1612C72.5441 41.4317 73.4898 41.067 74.6208 41.067C75.8495 41.067 76.8284 41.4765 77.5563 42.302C78.2873 43.1227 78.6665 44.2217 78.7002 45.5975H70.4421ZM83.9969 37.7332C81.7109 35.4935 78.4712 34.3721 74.2768 34.3721C69.8678 34.3721 66.4779 35.6599 64.1022 38.2354C61.7266 40.811 60.5365 44.5065 60.5365 49.3217C60.5365 53.985 61.8196 57.5812 64.3856 60.1056C66.9484 62.63 70.5493 63.8938 75.187 63.8938C77.4139 63.8938 79.3303 63.7419 80.9364 63.4395C82.533 63.1404 84.0786 62.5996 85.5791 61.8189L84.1009 55.3927C83.0114 55.8375 81.9747 56.1798 80.9973 56.4054C79.58 56.7333 78.0297 56.8981 76.3403 56.8981C74.4894 56.8981 73.0259 56.4454 71.9541 55.5399C70.8806 54.6329 70.3111 53.3819 70.2456 51.7885H87.4235V47.41C87.4235 43.1979 86.2813 39.9712 83.9969 37.7332Z" fill="#0F0B0B"/>
</svg>
