<svg width="259" height="90" viewBox="0 0 259 90" fill="none" xmlns="http://www.w3.org/2000/svg">
<path d="M37 30.8977C37 24.3269 42.3141 19 48.8691 19H77.0714C83.6267 19 88.9408 24.3269 88.9408 30.8977V59.1679C88.9408 65.7391 83.6267 71.0659 77.0714 71.0659H48.8691C42.3141 71.0659 37 65.7391 37 59.1679V30.8977Z" fill="black"/>
<path d="M50.7968 57.4387C50.7968 54.0689 53.522 51.3372 56.8837 51.3372H62.9702V57.4387C62.9702 60.8084 60.2453 63.5402 56.8837 63.5402C53.522 63.5402 50.7968 60.8084 50.7968 57.4387Z" fill="#24CB71"/>
<path d="M62.9702 26.7288V38.9315H69.0571C72.4187 38.9315 75.1439 36.2 75.1439 32.8303C75.1439 29.4605 72.4187 26.7288 69.0571 26.7288H62.9702Z" fill="#FF7237"/>
<path d="M69.0066 51.1343C72.3682 51.1343 75.0934 48.4026 75.0934 45.0329C75.0934 41.6631 72.3682 38.9314 69.0066 38.9314C65.6449 38.9314 62.9198 41.6631 62.9198 45.0329C62.9198 48.4026 65.6449 51.1343 69.0066 51.1343Z" fill="#00B6FF"/>
<path d="M50.7968 32.8303C50.7968 36.2 53.522 38.9318 56.8837 38.9318H62.9702V26.7288H56.8837C53.522 26.7288 50.7968 29.4605 50.7968 32.8303Z" fill="#FF3737"/>
<path d="M50.7968 45.0329C50.7968 48.4026 53.522 51.1344 56.8837 51.1344H62.9702V38.9316H56.8837C53.522 38.9316 50.7968 41.6631 50.7968 45.0329Z" fill="#874FFF"/>
<path d="M211.487 62.9859C209.887 62.9859 208.45 62.6756 207.177 62.0554C205.935 61.4352 204.939 60.6025 204.188 59.5579C203.47 58.4805 203.11 57.2398 203.11 55.8359C203.11 54.0078 203.698 52.5224 204.874 51.3795C206.05 50.2369 207.732 49.4535 209.92 49.0291L215.652 47.8536C216.795 47.6252 217.579 47.266 218.003 46.7763C218.428 46.2865 218.64 45.5684 218.64 44.6216L219.228 50.3511L210.998 52.1142C209.887 52.3426 209.022 52.7508 208.401 53.3384C207.813 53.9262 207.52 54.7423 207.52 55.7869C207.52 56.8646 207.928 57.7295 208.744 58.3827C209.593 59.0355 210.736 59.3621 212.173 59.3621C213.349 59.3621 214.427 59.1008 215.407 58.5784C216.419 58.0561 217.203 57.3377 217.758 56.4238C218.346 55.477 218.64 54.3997 218.64 53.1915V44.6216C218.64 43.4461 218.215 42.5322 217.366 41.8791C216.55 41.1936 215.423 40.8507 213.986 40.8507C212.157 40.8507 210.753 41.3078 209.773 42.222C208.793 43.1361 208.222 44.4256 208.058 46.0908L203.747 45.5032C203.911 43.7727 204.433 42.2872 205.315 41.0468C206.197 39.7734 207.372 38.7939 208.842 38.1085C210.312 37.4227 212.059 37.0801 214.084 37.0801C216.958 37.0801 219.163 37.8145 220.697 39.2837C222.232 40.7528 223 42.6464 223 44.9642V62.2512H218.738V59.0681C218.313 60.1455 217.448 61.076 216.142 61.8596C214.868 62.6104 213.316 62.9859 211.487 62.9859Z" fill="black"/>
<path d="M168.375 62.2512V37.8145H172.637V40.557C172.963 39.6102 173.682 38.7939 174.793 38.1085C175.903 37.4227 177.193 37.0801 178.662 37.0801C180.1 37.0801 181.422 37.39 182.631 38.0103C183.839 38.6308 184.623 39.5613 184.982 40.8018C185.407 39.6592 186.191 38.7613 187.334 38.1085C188.509 37.4227 189.816 37.0801 191.253 37.0801C193.735 37.0801 195.629 37.7982 196.936 39.2347C198.242 40.6712 198.895 42.7606 198.895 45.5032V62.2512H194.535V46.0908C194.535 44.4582 194.176 43.234 193.457 42.4177C192.771 41.5691 191.759 41.1446 190.42 41.1446C188.95 41.1446 187.807 41.667 186.991 42.7117C186.207 43.7237 185.815 45.2092 185.815 47.1681V62.2512H181.455V46.0908C181.455 44.4582 181.096 43.234 180.377 42.4177C179.691 41.5691 178.679 41.1446 177.34 41.1446C175.87 41.1446 174.727 41.667 173.91 42.7117C173.127 43.7237 172.735 45.2092 172.735 47.1681V62.2512H168.375Z" fill="black"/>
<path d="M151.704 71.0661C148.666 71.0661 146.2 70.3643 144.306 68.9604C142.412 67.5565 141.204 65.5976 140.681 63.0838L144.943 62.1533C145.302 63.7529 146.07 64.9937 147.245 65.8753C148.421 66.7894 149.907 67.2465 151.704 67.2465C153.859 67.2465 155.476 66.6913 156.553 65.5813C157.664 64.504 158.219 62.888 158.219 60.7331V56.8646C157.729 58.0724 156.814 59.0518 155.476 59.8026C154.169 60.5536 152.7 60.9291 151.066 60.9291C148.911 60.9291 147.017 60.4394 145.384 59.46C143.751 58.4479 142.477 57.044 141.563 55.2483C140.648 53.4528 140.191 51.3795 140.191 49.0291C140.191 46.6457 140.648 44.5564 141.563 42.7606C142.477 40.9649 143.735 39.5776 145.335 38.5982C146.968 37.5861 148.878 37.0801 151.066 37.0801C152.7 37.0801 154.185 37.4553 155.525 38.2063C156.896 38.9245 157.827 39.8223 158.317 40.8996V37.8145H162.579V60.7331C162.579 62.888 162.154 64.7324 161.305 66.2671C160.456 67.8341 159.215 69.0256 157.582 69.8419C155.982 70.6579 154.022 71.0661 151.704 71.0661ZM151.605 57.0603C153.696 57.0603 155.361 56.3256 156.602 54.8564C157.876 53.3873 158.513 51.445 158.513 49.0291C158.513 46.5805 157.876 44.6216 156.602 43.1525C155.329 41.6833 153.663 40.9486 151.605 40.9486C149.515 40.9486 147.833 41.6833 146.559 43.1525C145.319 44.6216 144.698 46.5805 144.698 49.0291C144.698 51.445 145.335 53.3873 146.609 54.8564C147.882 56.3256 149.548 57.0603 151.605 57.0603Z" fill="black"/>
<path d="M131.392 62.2224V37.8143H135.752V62.251L131.392 62.2224ZM131.343 34.6803V27.7263H135.801V34.6803H131.343Z" fill="black"/>
<path d="M106.351 62.251V27.7263H110.956V62.251H106.351ZM107.282 47.6576V43.4949H126.045V47.6576H107.282ZM107.282 31.9377V27.7263H127.857V31.9377H107.282Z" fill="black"/>
</svg>
