<svg width="259" height="90" viewBox="0 0 259 90" fill="none" xmlns="http://www.w3.org/2000/svg">
<g clip-path="url(#clip0_2504_256)">
<path d="M52.8772 12.0054H54.6735C60.9098 12.1411 67.0443 14.6517 71.4504 19.0961C69.8235 20.7586 68.1628 22.3532 66.5698 24.0156C64.0957 21.7764 61.1131 20.0461 57.8594 19.4354C53.0467 18.4176 47.8611 19.3336 43.8279 22.0817C39.4218 24.9655 36.4393 29.8511 35.7953 35.0758C35.0836 40.2328 36.541 45.6611 39.8963 49.6645C43.1161 53.5661 48.0306 56.0089 53.1144 56.1785C57.8594 56.45 62.8077 54.9911 66.2648 51.6662C68.9762 49.3253 70.2302 45.7629 70.6369 42.3023C65.0108 42.3023 59.3846 42.3363 53.7584 42.3023V35.3133H77.4494C78.6695 42.8112 76.9071 51.2591 71.2131 56.6196C67.4171 60.4194 62.1638 62.6586 56.8087 63.0997C51.6232 63.6086 46.2681 62.6247 41.6587 60.1141C36.1342 57.1624 31.7282 52.1751 29.5591 46.3057C27.5255 40.9113 27.4916 34.8044 29.3896 29.3761C31.1181 24.4227 34.4396 20.0461 38.7101 16.9927C42.8111 13.9731 47.7933 12.3107 52.8772 12.0054Z" fill="#3780FF"/>
<path d="M188.787 13.77H196.04V62.218C193.633 62.218 191.193 62.2519 188.787 62.1841C188.821 46.0687 188.787 29.9193 188.787 13.77Z" fill="#38B137"/>
<path d="M93.5823 30.5639C98.0561 29.7157 102.903 30.6657 106.597 33.3459C109.952 35.7208 112.291 39.4528 113.003 43.5241C113.918 48.2399 112.766 53.3969 109.715 57.1289C106.428 61.3019 101.039 63.5411 95.7853 63.2018C90.9726 62.9304 86.2954 60.5216 83.4484 56.586C80.2286 52.2434 79.4491 46.2722 81.2115 41.1831C82.9739 35.7208 87.9561 31.5478 93.5823 30.5639ZM94.5991 37.0101C92.7689 37.485 91.0743 38.5368 89.8541 40.0296C86.5665 43.9651 86.7699 50.3774 90.3964 54.0415C92.4639 56.145 95.582 57.1289 98.4628 56.5521C101.14 56.0771 103.479 54.279 104.767 51.9041C107.004 47.8667 106.36 42.3027 102.937 39.1475C100.734 37.1118 97.5139 36.2637 94.5991 37.0101Z" fill="#FA3913"/>
<path d="M129.508 30.564C134.626 29.5801 140.218 31.005 144.048 34.6013C150.285 40.1993 150.962 50.6828 145.641 57.1289C142.422 61.2002 137.202 63.4394 132.05 63.2019C127.136 63.0662 122.289 60.6234 119.375 56.5861C116.087 52.1416 115.375 46.0347 117.239 40.8439C119.103 35.5512 123.984 31.5139 129.508 30.564ZM130.525 37.0101C128.695 37.4851 127 38.5368 125.78 39.9957C122.527 43.8634 122.662 50.1739 126.153 53.8719C128.221 56.0772 131.44 57.1628 134.423 56.5522C137.066 56.0433 139.439 54.279 140.727 51.9041C142.93 47.8329 142.286 42.2688 138.829 39.1136C136.626 37.078 133.406 36.2637 130.525 37.0101Z" fill="#FCBD06"/>
<path d="M159.978 32.5318C163.876 30.0891 169.061 29.4105 173.264 31.514C174.586 32.0908 175.67 33.0746 176.721 34.0585C176.755 33.1425 176.721 32.1925 176.755 31.2426C179.026 31.2765 181.296 31.2426 183.601 31.2765V61.2003C183.567 65.7126 182.415 70.4963 179.161 73.7872C175.602 77.4174 170.146 78.537 165.231 77.7906C159.978 77.0103 155.402 73.1766 153.369 68.325C155.402 67.3411 157.538 66.5608 159.639 65.6447C160.825 68.4268 163.232 70.8016 166.248 71.3445C169.265 71.8873 172.755 71.1409 174.721 68.6303C176.823 66.0518 176.823 62.5234 176.721 59.3682C175.162 60.8949 173.366 62.252 171.196 62.7609C166.485 64.0841 161.3 62.4556 157.673 59.2664C154.013 56.0773 151.844 51.1578 152.047 46.2723C152.149 40.7422 155.267 35.4156 159.978 32.5318ZM166.994 36.8745C164.926 37.2138 162.994 38.3673 161.673 39.9619C158.487 43.7617 158.487 49.8347 161.706 53.5667C163.537 55.7719 166.485 56.9933 169.332 56.6879C172.01 56.4165 174.484 54.7202 175.806 52.3792C178.043 48.4097 177.67 43.0153 174.653 39.5547C172.789 37.4173 169.807 36.3656 166.994 36.8745Z" fill="#3780FF"/>
<path d="M204.75 34.262C208.817 30.4622 215.087 29.173 220.307 31.1747C225.255 33.0407 228.407 37.7565 230 42.6081C222.645 45.6616 215.325 48.6811 207.97 51.7345C208.987 53.6684 210.546 55.4326 212.647 56.1451C215.596 57.1968 219.121 56.8236 221.595 54.8558C222.578 54.1094 223.357 53.1255 224.103 52.1756C225.967 53.4309 227.831 54.6523 229.695 55.9076C227.051 59.877 222.612 62.6591 217.833 63.1001C212.545 63.7447 206.919 61.7091 203.496 57.57C197.87 51.056 198.412 40.1314 204.75 34.262ZM208.377 40.5386C207.224 42.201 206.75 44.2366 206.784 46.2383C211.698 44.2027 216.613 42.1671 221.527 40.0975C220.714 38.1976 218.748 37.0441 216.748 36.7387C213.528 36.162 210.173 37.8922 208.377 40.5386Z" fill="#FA3913"/>
</g>
<defs>
<clipPath id="clip0_2504_256">
<rect width="202" height="66" fill="white" transform="translate(28 12)"/>
</clipPath>
</defs>
</svg>
