<svg width="259" height="90" viewBox="0 0 259 90" fill="none" xmlns="http://www.w3.org/2000/svg">
<path d="M128.416 30.7984C139.595 28.5511 151.133 28.5856 162.421 29.9358C167.086 30.5431 171.942 31.1572 176.054 33.6254C178.455 35.0193 180.312 37.5518 180.4 40.3972C172.704 40.5559 165.009 40.4754 157.316 40.4524C155.018 37.7634 151.344 36.9215 147.963 36.7674C143.431 36.6156 138.72 36.9584 134.569 38.9365C131.061 40.6019 128.051 43.6864 127.124 47.5393C126.672 49.2943 127.803 51.1092 129.342 51.9028C132.315 53.4232 135.724 53.6003 138.998 53.7222C143.282 53.8947 147.745 53.092 151.381 50.7113C151.742 50.5065 152.056 50.1178 152.515 50.1753C160.296 50.1477 168.078 50.1592 175.859 50.1937C173.179 53.1978 169.616 55.2611 165.906 56.7194C161.255 58.5503 156.315 59.5118 151.379 60.172C145.901 60.8252 140.384 61.2278 134.868 61.1473C127.404 61.1059 119.855 60.6205 112.656 58.5273C109.336 57.49 105.987 55.9005 103.822 53.0713C102.017 50.8286 101.765 47.5692 102.947 44.9815C104.481 41.5772 107.481 39.1159 110.629 37.262C116.127 34.0946 122.22 32.0727 128.416 30.7984Z" fill="#006CB7"/>
<path d="M30.5061 30.0762C38.5941 29.9451 46.6844 30.1521 54.7747 30.1199C53.2871 33.4851 51.7764 36.8434 50.2842 40.2086C58.1564 40.2224 66.0286 40.181 73.9009 40.2293C75.4413 36.8756 76.8762 33.469 78.4189 30.1153C86.732 30.1061 95.0427 30.0854 103.356 30.1176C98.8445 40.1051 94.3516 50.0971 89.8611 60.0938C82.898 60.2456 75.9326 60.1536 68.9695 60.1743C67.6517 60.1881 66.3294 60.218 65.0231 60.034C66.8643 56.1099 68.6022 52.1374 70.3722 48.1834C62.4771 48.1811 54.5796 48.1811 46.6844 48.1811C44.9718 52.1466 43.204 56.0892 41.5465 60.0754C33.3643 60.2502 25.1822 60.1835 17 60.1375C21.4354 50.0856 26.0431 40.112 30.5061 30.0762Z" fill="#006CB7"/>
<path d="M192.062 30.0256C200.421 30.0256 208.782 30.0256 217.141 30.0256C213.755 37.6347 210.348 45.2323 206.927 52.8275C218.448 52.8344 229.97 52.862 241.49 52.8597C240.395 55.2933 239.303 57.727 238.205 60.1583C218.34 60.1744 198.474 60.179 178.611 60.156C183.04 50.088 187.567 40.0637 192.062 30.0256Z" fill="#006CB7"/>
</svg>
