<svg width="259" height="90" viewBox="0 0 259 90" fill="none" xmlns="http://www.w3.org/2000/svg">
<path d="M58 16V19.8998H85.8347V16H58ZM89.7783 16V19.8998H129.444C129.444 19.8998 125.392 16 120.026 16H89.7783ZM137.225 16V19.8998H161.222L159.798 16H137.225ZM178.427 16L177.003 19.8998H200.782V16H178.427ZM58 23.5841V27.4839H85.8347V23.5841H58ZM89.7783 23.5897V27.4841H134.047C134.047 27.4841 133.53 24.4826 132.628 23.5897H89.7783ZM137.225 23.5897V27.4841H163.853L162.535 23.5897H137.225ZM175.578 23.5897L174.26 27.4841H200.782V23.5897H175.578ZM65.999 31.1683V35.0736H78.0535V31.1683H65.999ZM97.7775 31.1683V35.0736H109.832V31.1683H97.7775ZM121.557 31.1683V35.0736H133.611C133.611 35.0736 134.377 33.0112 134.377 31.1683H121.557ZM145.224 31.1683V35.0736H166.596L165.172 31.1683H145.224ZM172.953 31.1683L171.523 35.0736H193.001V31.1683H172.953ZM65.999 38.7581V42.6579H78.0535V38.7581H65.999ZM97.7775 38.7581V42.6579H128.567C128.567 42.6579 131.143 40.6569 131.963 38.7581H97.7775ZM145.224 38.7581V42.6579H157.279V40.4871L158.044 42.6579H180.125L180.947 40.4871V42.6579H193.001V38.7581H170.372L169.171 42.0613L167.965 38.7581H145.224ZM65.999 46.3422V50.242H78.0535V46.3422H65.999ZM97.7775 46.3422V50.242H131.963C131.143 48.3495 128.567 46.3422 128.567 46.3422H97.7775ZM145.224 46.3422V50.242H157.279V46.3422H145.224ZM159.469 46.3422L160.926 50.242H177.483L178.868 46.3422H159.469ZM180.946 46.3422V50.242H193.001V46.3422H180.946ZM65.999 53.9264V57.826H78.0535V53.9264H65.999ZM97.7775 53.9264V57.826H109.832V53.9264H97.7775ZM121.557 53.9264V57.826H134.376C134.376 55.9856 133.611 53.9264 133.611 53.9264H121.557ZM145.224 53.9264V57.826H157.279V53.9264H145.224ZM162.206 53.9264L163.619 57.826H174.718L176.143 53.9264H162.206ZM180.946 53.9264V57.826H193.001V53.9264H180.946ZM58.2178 61.5105V65.4159H86.0525V61.5105H58.2178ZM89.7783 61.5105V65.4159H132.628C133.53 64.5217 134.047 61.5105 134.047 61.5105H89.7783ZM137.443 61.5105V65.4159H157.279V61.5105H137.443ZM164.948 61.5105L166.401 65.4159H172.048L173.411 61.5105H164.948ZM180.946 61.5105V65.4159H201V61.5105H180.946ZM58.2178 69.1002V73H86.0525V69.1002H58.2178ZM89.7783 69.1002V72.9944H120.026C125.392 72.9944 129.444 69.1002 129.444 69.1002H89.7783ZM137.443 69.1002V73H157.279V69.1002H137.443ZM167.702 69.1002L169.099 72.989L169.339 72.9944L170.758 69.1002H167.702ZM180.946 69.1002V73H201V69.1002H180.946Z" fill="#1F70C1"/>
</svg>
