<svg width="259" height="90" viewBox="0 0 259 90" fill="none" xmlns="http://www.w3.org/2000/svg">
<g clip-path="url(#clip0_2504_257)">
<path d="M242 42.7154V38.7634H237.064V32.6195L236.898 32.6703L232.262 34.0807L232.171 34.1083V38.7636H224.854V36.1702C224.854 34.9626 225.125 34.0386 225.661 33.4223C226.192 32.8134 226.952 32.5038 227.922 32.5038C228.619 32.5038 229.341 32.6671 230.067 32.989L230.249 33.0699V28.9079L230.163 28.8766C229.486 28.6344 228.564 28.5125 227.422 28.5125C225.982 28.5125 224.674 28.824 223.533 29.4413C222.392 30.0596 221.494 30.9421 220.865 32.0643C220.238 33.1851 219.92 34.4796 219.92 35.9122V38.7634H216.484V42.7154H219.92V59.3646H224.854V42.7154H232.171V53.2957C232.171 57.6531 234.238 59.8613 238.315 59.8613C238.985 59.8613 239.69 59.7833 240.41 59.6304C241.142 59.4735 241.642 59.3167 241.935 59.1494L242 59.1111V55.1226L241.8 55.2545C241.532 55.4319 241.198 55.5769 240.807 55.6847C240.415 55.7945 240.087 55.8495 239.833 55.8495C238.878 55.8495 238.171 55.5936 237.733 55.0886C237.29 54.5791 237.065 53.688 237.065 52.4416V42.7154H242ZM205.466 55.8501C203.675 55.8501 202.263 55.2597 201.268 54.0967C200.267 52.9279 199.76 51.2614 199.76 49.1441C199.76 46.9596 200.267 45.2499 201.269 44.0604C202.264 42.8787 203.663 42.2789 205.426 42.2789C207.136 42.2789 208.498 42.8517 209.474 43.9823C210.454 45.1188 210.952 46.8148 210.952 49.0247C210.952 51.2618 210.484 52.9802 209.561 54.1298C208.645 55.2706 207.267 55.8501 205.466 55.8501ZM205.685 38.2671C202.269 38.2671 199.555 39.2625 197.62 41.2257C195.687 43.1891 194.707 45.9062 194.707 49.3021C194.707 52.5277 195.663 55.1221 197.551 57.0123C199.439 58.9031 202.007 59.8609 205.186 59.8609C208.497 59.8609 211.157 58.8515 213.091 56.8612C215.024 54.873 216.004 52.1816 216.004 48.865C216.004 45.589 215.085 42.9752 213.271 41.0976C211.456 39.2192 208.903 38.2671 205.685 38.2671ZM186.752 38.2671C184.428 38.2671 182.506 38.8582 181.037 40.0235C179.56 41.1959 178.81 42.7334 178.81 44.594C178.81 45.5612 178.972 46.4203 179.29 47.1489C179.611 47.88 180.106 48.5237 180.765 49.0639C181.418 49.5997 182.427 50.161 183.764 50.7321C184.887 51.1918 185.725 51.5807 186.258 51.8872C186.778 52.1877 187.147 52.4896 187.356 52.7837C187.558 53.0715 187.661 53.4654 187.661 53.9515C187.661 55.3356 186.619 56.009 184.474 56.009C183.678 56.009 182.771 55.8438 181.777 55.5182C180.79 55.1975 179.858 54.7278 179.015 54.1256L178.81 53.9796V58.7026L178.885 58.7374C179.583 59.0578 180.463 59.3281 181.501 59.5407C182.536 59.7535 183.477 59.8617 184.294 59.8617C186.816 59.8617 188.847 59.2678 190.328 58.0955C191.82 56.9151 192.575 55.3412 192.575 53.4163C192.575 52.0277 192.169 50.8368 191.367 49.8764C190.57 48.9239 189.188 48.0493 187.26 47.2763C185.724 46.6633 184.74 46.1544 184.334 45.7638C183.942 45.3864 183.744 44.8527 183.744 44.1769C183.744 43.5778 183.989 43.0978 184.493 42.7091C185 42.3185 185.706 42.1198 186.592 42.1198C187.414 42.1198 188.255 42.2489 189.092 42.5019C189.927 42.755 190.662 43.0939 191.274 43.5084L191.476 43.6454V39.1651L191.399 39.1321C190.833 38.891 190.088 38.6847 189.182 38.5173C188.281 38.351 187.463 38.2671 186.752 38.2671ZM165.949 55.8501C164.158 55.8501 162.746 55.2597 161.751 54.0967C160.75 52.9279 160.244 51.2618 160.244 49.1441C160.244 46.9596 160.751 45.2499 161.752 44.0604C162.747 42.8787 164.145 42.2789 165.909 42.2789C167.619 42.2789 168.981 42.8517 169.957 43.9823C170.937 45.1188 171.434 46.8148 171.434 49.0247C171.434 51.2618 170.966 52.9802 170.044 54.1298C169.128 55.2706 167.75 55.8501 165.949 55.8501ZM166.168 38.2671C162.751 38.2671 160.037 39.2625 158.104 41.2257C156.17 43.1891 155.189 45.9062 155.189 49.3021C155.189 52.529 156.147 55.1221 158.034 57.0123C159.922 58.9031 162.491 59.8609 165.669 59.8609C168.98 59.8609 171.64 58.8515 173.574 56.8612C175.507 54.873 176.487 52.1816 176.487 48.865C176.487 45.589 175.568 42.9752 173.754 41.0976C171.938 39.2192 169.386 38.2671 166.168 38.2671ZM147.7 42.3311V38.7634H142.827V59.3641H147.7V48.826C147.7 47.0342 148.109 45.562 148.915 44.4501C149.711 43.3515 150.772 42.7948 152.067 42.7948C152.506 42.7948 152.999 42.8667 153.532 43.0091C154.061 43.1506 154.443 43.3043 154.669 43.466L154.874 43.6136V38.7282L154.795 38.6945C154.341 38.5027 153.699 38.406 152.886 38.406C151.662 38.406 150.566 38.7973 149.627 39.5677C148.803 40.2448 148.207 41.1733 147.752 42.3311H147.7ZM134.099 38.2671C131.863 38.2671 129.869 38.7438 128.173 39.6836C126.473 40.6255 125.158 41.9702 124.264 43.6802C123.373 45.386 122.921 47.3785 122.921 49.6006C122.921 51.547 123.36 53.3333 124.226 54.9076C125.093 56.4845 126.32 57.7181 127.873 58.5737C129.424 59.4283 131.216 59.8615 133.201 59.8615C135.517 59.8615 137.494 59.4011 139.08 58.4931L139.144 58.4566V54.0169L138.939 54.1656C138.221 54.6858 137.418 55.101 136.555 55.4002C135.693 55.6991 134.908 55.8501 134.219 55.8501C132.307 55.8501 130.772 55.2552 129.658 54.0822C128.541 52.9076 127.975 51.2584 127.975 49.183C127.975 47.0946 128.565 45.4029 129.729 44.1547C130.889 42.9102 132.427 42.2789 134.3 42.2789C135.902 42.2789 137.463 42.8182 138.939 43.8834L139.144 44.031V39.3531L139.078 39.3162C138.522 39.0068 137.764 38.7514 136.823 38.5577C135.886 38.3645 134.97 38.2671 134.099 38.2671ZM119.565 38.7636H114.691V59.3641H119.565V38.7636ZM117.178 29.9876C116.376 29.9876 115.676 30.2591 115.101 30.7971C114.524 31.3367 114.231 32.016 114.231 32.8177C114.231 33.6068 114.521 34.2738 115.092 34.799C115.66 35.3226 116.362 35.5881 117.178 35.5881C117.994 35.5881 118.698 35.3226 119.273 34.7998C119.851 34.2738 120.145 33.607 120.145 32.8177C120.145 32.0441 119.859 31.3717 119.297 30.8189C118.735 30.2672 118.021 29.9876 117.178 29.9876ZM105.018 37.2437V59.3641H109.992V30.6182H103.108L94.3582 51.9698L85.8672 30.6182H78.7031V59.3639H83.3771V37.2415H83.5375L92.5039 59.3641H96.0311L104.858 37.2437H105.018Z" fill="#706D6E"/>
<path d="M38.9265 43.8088H16V21.0122H38.9265V43.8088Z" fill="#F1511B"/>
<path d="M64.24 43.8088H41.314V21.0122H64.24V43.8088Z" fill="#80CC28"/>
<path d="M38.9258 68.9877H16V46.1914H38.9258V68.9877Z" fill="#00ADEF"/>
<path d="M64.24 68.9877H41.314V46.1914H64.24V68.9877Z" fill="#FBBC09"/>
</g>
<defs>
<clipPath id="clip0_2504_257">
<rect width="226" height="48" fill="white" transform="translate(16 21)"/>
</clipPath>
</defs>
</svg>
