<svg width="259" height="90" viewBox="0 0 259 90" fill="none" xmlns="http://www.w3.org/2000/svg">
<path d="M113.43 49.5164H128.494L120.527 36.5445L105.906 59.9982H99.2522L117.037 31.8259C117.81 30.6879 119.097 30 120.527 30C121.91 30 123.199 30.6641 123.947 31.7784L141.8 59.9982H135.146L132.008 54.7564H116.755L113.43 49.5164ZM182.548 54.7564V30.2854H176.903V57.1531C176.903 57.8886 177.185 58.6004 177.723 59.1456C178.262 59.6908 178.989 59.9982 179.786 59.9982H205.535L208.863 54.7564H182.548ZM89.1308 50.3708C94.6136 50.3708 99.066 45.8901 99.066 40.3409C99.066 34.7917 94.6154 30.2854 89.1308 30.2854H64.4284V60H70.0739V35.5254H88.7566C91.3814 35.5254 93.4892 37.6843 93.4892 40.3391C93.4892 42.9938 91.3796 45.1528 88.7566 45.1528L72.8379 45.129L89.693 59.9982H97.8964L86.5548 50.369L89.1308 50.3708ZM29.6823 59.9982C21.5783 59.9982 15 53.3585 15 45.1528C15 36.947 21.5765 30.2836 29.6823 30.2836H46.7453C54.8529 30.2836 61.4258 36.9488 61.4258 45.1528C61.4258 53.3567 54.8529 59.9982 46.7453 59.9982H29.6823ZM46.3657 54.7564C51.6171 54.7564 55.8706 50.4641 55.8706 45.1528C55.8706 39.8414 51.6171 35.5236 46.3657 35.5236H30.0583C24.8123 35.5236 20.5569 39.8396 20.5569 45.1528C20.5569 50.4641 24.8123 54.7564 30.0583 54.7564H46.3657ZM153.589 59.9982C145.483 59.9982 138.899 53.3585 138.899 45.1528C138.899 36.947 145.483 30.2836 153.589 30.2836H173.857L170.55 35.5236H153.965C148.715 35.5236 144.449 39.8396 144.449 45.1528C144.449 50.4641 148.715 54.7564 153.965 54.7564H174.325L170.999 59.9982H153.589ZM222.638 54.7564C218.305 54.7564 214.624 51.8162 213.5 47.76H237.633L240.959 42.52H213.5C214.624 38.4894 218.305 35.5236 222.638 35.5236H239.202L242.553 30.2836H222.262C214.156 30.2836 207.572 36.9488 207.572 45.1528C207.572 53.3567 214.156 59.9982 222.262 59.9982H239.672L243 54.7564H222.638Z" fill="#EA1B22"/>
</svg>
