<svg width="259" height="90" viewBox="0 0 259 90" fill="none" xmlns="http://www.w3.org/2000/svg">
<g clip-path="url(#clip0_2504_393)">
<path d="M48.2737 37.6094C50.2559 30.3395 58.5119 28.6093 66.113 28.3955C72.3617 28.2198 79.3289 29.0487 79.3289 29.0487L76.0553 41.055C76.0553 41.055 69.0881 40.2262 62.8394 40.4019C55.2383 40.6156 46.9823 42.3458 45 49.6157L48.2737 37.6094Z" fill="#0190FF"/>
<path d="M153.457 24.8269C143.45 24.827 140.886 34.542 139.452 39.8036L128.762 79H134.999L144.476 44.2449H150.953L146.641 60.0596H152.878L158.049 41.0939H145.336C145.987 38.7034 146.682 36.1568 147.248 34.0803C148.294 30.2455 150.002 27.4606 152.486 27.5543C155.231 27.6578 153.834 29.4661 153.458 30.8448C152.938 32.7522 154.342 34.6702 156.802 34.6702C162.146 34.6702 163.464 24.8269 153.457 24.8269ZM118.08 31.6854V31.6858L110.344 60.0596H116.845L119.71 49.5524H125.358C131.589 49.5524 135.724 46.1024 136.843 41.3069C137.887 36.8292 135.28 31.6854 128.297 31.6854C124.891 31.6855 121.486 31.6854 118.08 31.6854ZM123.672 35.0243H126.171C128.788 35.0243 130.865 37.1259 130.363 40.7832C129.899 44.1734 126.229 46.2056 123.029 46.2056H120.623L123.672 35.0243ZM185.324 40.5195C179.857 40.5195 175.914 45.2371 174.967 49.9517C174.058 54.4821 176.648 60.5026 183.779 60.5026C188.847 60.5026 191.395 58.2641 191.395 58.2641L190.229 55.3758C190.229 55.3758 188.098 57.1153 185.13 57.1153C182.161 57.1153 180.298 54.7645 180.71 51.0185H192.834C193.7 48.8125 194.175 40.5195 185.324 40.5195ZM209.489 40.7746C205.423 40.7746 203.026 44.9864 203.026 44.9864L204.087 41.0942H197.851L192.679 60.0596H198.916C198.916 60.0596 200.417 54.5185 201.182 51.7521C202.362 47.4279 204.768 44.72 205.925 44.6092C207.262 44.4812 207.134 47.7128 209.741 47.7128C213.697 47.7128 214.55 40.7746 209.49 40.7746H209.489ZM160.399 41.0942L159.539 44.2455H167.444L155.017 60.0596H172.566L173.425 56.9083H164.508L176.935 41.0942H160.399ZM185.3 43.6511V43.6514C188.691 43.6514 187.92 48.1424 187.92 48.1424L181.127 48.1266C181.127 48.1266 182.254 43.6511 185.3 43.6511Z" fill="#2B01BE"/>
<path d="M95.7095 60.1037C73.3454 58.7048 47.3563 47.1331 48.2737 37.6094L45.1881 48.926C44.2521 58.6427 68.3606 70.1791 92.4358 72.11L95.7095 60.1037Z" fill="#2B01BE"/>
<path d="M103.837 44.5007C101.855 51.7706 93.5986 53.5008 85.9975 53.7145C79.7488 53.8902 72.7816 53.0614 72.7816 53.0614L76.0553 41.0551C76.0553 41.0551 83.0224 41.8839 89.2712 41.7082C96.8723 41.4945 105.128 39.7643 107.11 32.4944L103.837 44.5007Z" fill="#2B01BE"/>
<path d="M56.4009 22.0063C78.7651 23.4053 104.754 34.977 103.837 44.5007L106.922 33.184C107.858 23.4673 83.7499 11.9309 59.6746 10L56.4009 22.0063Z" fill="#0190FF"/>
</g>
<defs>
<clipPath id="clip0_2504_393">
<rect width="168" height="69" fill="white" transform="translate(45 10)"/>
</clipPath>
</defs>
</svg>
