<svg width="259" height="90" viewBox="0 0 259 90" fill="none" xmlns="http://www.w3.org/2000/svg">
<path fill-rule="evenodd" clip-rule="evenodd" d="M237.407 28.2281V34.7794C234.013 33.4981 230.991 32.8503 228.347 32.8503C226.78 32.8503 225.533 33.1404 224.595 33.7012C223.657 34.2669 223.178 34.9632 223.178 35.7851C223.178 36.8778 224.237 37.8495 226.369 38.7199L232.529 41.7175C237.509 44.0915 239.979 47.2438 239.979 51.2036C239.979 54.4962 238.669 57.1216 236.024 59.0652C233.399 61.0283 229.865 62 225.465 62C223.434 62 221.612 61.913 219.992 61.7292C218.372 61.5553 216.511 61.1974 214.446 60.6849V53.829C218.232 55.1103 221.679 55.7581 224.783 55.7581C228.487 55.7581 230.329 54.6848 230.329 52.5187C230.329 51.4406 229.575 50.5703 228.042 49.8885L221.2 46.973C218.677 45.832 216.801 44.4493 215.573 42.8102C214.364 41.1567 213.75 39.2614 213.75 37.0954C213.75 34.0638 215.026 31.6222 217.55 29.7655C220.093 27.9234 223.468 27 227.665 27C229.028 27 230.6 27.1208 232.34 27.3432C234.095 27.5802 235.783 27.8703 237.407 28.2281Z" fill="#009999"/>
<path fill-rule="evenodd" clip-rule="evenodd" d="M43.6428 28.2281V34.7794C40.2486 33.4981 37.2317 32.8503 34.5869 32.8503C33.0156 32.8503 31.7731 33.1404 30.835 33.7012C29.8971 34.2669 29.4184 34.9632 29.4184 35.7851C29.4184 36.8778 30.4918 37.8495 32.624 38.7199L38.7837 41.7175C43.7443 44.0915 46.2198 47.2438 46.2198 51.2036C46.2198 54.4962 44.9047 57.1216 42.2793 59.0652C39.6346 61.0283 36.1196 62 31.7054 62C29.6747 62 27.8471 61.913 26.2274 61.7292C24.6077 61.5553 22.7655 61.1974 20.6866 60.6849V53.829C24.4868 55.1103 27.9342 55.7581 31.0188 55.7581C34.7224 55.7581 36.5645 54.6848 36.5645 52.5187C36.5645 51.4406 35.8151 50.5703 34.2969 49.8885L27.4555 46.973C24.9123 45.832 23.0363 44.4493 21.8276 42.8102C20.5995 41.1567 20 39.2614 20 37.0954C20 34.0638 21.2668 31.6222 23.8051 29.7655C26.329 27.9234 29.7085 27 33.9053 27C35.2832 27 36.8352 27.1208 38.5951 27.3432C40.3357 27.5802 42.0231 27.8703 43.6428 28.2281Z" fill="#009999"/>
<path fill-rule="evenodd" clip-rule="evenodd" d="M50.7018 27.614H60.7343V61.386H50.7018V27.614Z" fill="#009999"/>
<path fill-rule="evenodd" clip-rule="evenodd" d="M93.0558 27.614V33.856H78.1496V41.3452H91.0783V46.9731H78.1496V54.8347H93.3603V61.386H68.4944V27.614H93.0558Z" fill="#009999"/>
<path fill-rule="evenodd" clip-rule="evenodd" d="M139.892 27.614V61.386H130.526V39.1115L120.808 61.6954H115.026L105.68 39.1115V61.386H98.9061V27.614H111.153L119.512 48.2882L128.259 27.614H139.892Z" fill="#009999"/>
<path fill-rule="evenodd" clip-rule="evenodd" d="M172.199 27.614V33.856H157.374V41.3452H170.303V46.9731H157.374V54.8347H172.503V61.386H147.638V27.614H172.199Z" fill="#009999"/>
<path fill-rule="evenodd" clip-rule="evenodd" d="M207.402 27.614V61.386H196.76L184.818 39.7255V61.386H178.049V27.614H189.001L200.633 48.9023V27.614H207.402Z" fill="#009999"/>
</svg>
