<svg width="259" height="90" viewBox="0 0 259 90" fill="none" xmlns="http://www.w3.org/2000/svg">
<g clip-path="url(#clip0_2504_274)">
<path d="M131.401 40.3543H135.335V33.3215H138.126V30.479H128.61V33.3215H131.401V40.3543Z" fill="#007DC5"/>
<path d="M141.027 40.3543L143.032 34.4487L145.035 40.3543H148.883L145.111 30.479H140.951L137.182 40.3543H141.027Z" fill="#007DC5"/>
<path d="M150.729 40.3543H154.663V33.3215H157.454V30.479H147.938V33.3215H150.729V40.3543Z" fill="#007DC5"/>
<path d="M160.355 40.3543L162.361 34.4487L164.363 40.3543H168.211L164.442 30.479H160.279L156.51 40.3543H160.355Z" fill="#007DC5"/>
<path d="M198.11 47.4146C198.596 48.5326 199.238 49.7425 199.877 50.8207L202.451 55.1641H204.315V45.2888H202.649V48.7347C202.649 50.2448 202.683 51.516 202.811 52.827L202.778 52.8362C202.322 51.7641 201.751 50.6155 201.1 49.5281L198.553 45.2888H196.496V55.1641H198.159V51.6324C198.159 50.012 198.135 48.7072 198.064 47.4238L198.11 47.4146Z" fill="#007DC5"/>
<path d="M189.175 52.3736H192.305L193.198 55.1641H195.13L191.929 45.2888H189.64L186.476 55.1641H188.337L189.175 52.3736ZM190.23 48.5724C190.404 47.9843 190.554 47.3012 190.697 46.7223H190.728C190.878 47.2951 191.04 47.969 191.226 48.5785L192.003 51.0136H189.462L190.23 48.5724Z" fill="#007DC5"/>
<path d="M159.836 53.8255C158.919 53.8255 158.035 53.5314 157.454 53.1945L157.054 54.6892C157.592 55.0201 158.674 55.3202 159.716 55.3202C162.26 55.3202 163.455 53.9419 163.455 52.3521C163.455 50.9339 162.633 50.0702 160.921 49.4177C159.606 48.9154 159.035 48.557 159.035 47.8005C159.035 47.2185 159.521 46.612 160.664 46.612C161.59 46.612 162.278 46.8938 162.633 47.0806L163.064 45.6257C162.55 45.3653 161.768 45.1387 160.701 45.1387C158.564 45.1387 157.213 46.3578 157.213 47.975C157.213 49.3902 158.252 50.2662 159.882 50.8451C161.126 51.2985 161.627 51.7395 161.627 52.4839C161.627 53.2864 160.982 53.8255 159.836 53.8255Z" fill="#007DC5"/>
<path d="M133.963 46.6244C134.767 46.6244 135.424 46.802 135.883 47.0103L136.274 45.5738C135.907 45.3747 135.072 45.1357 133.886 45.1357C130.875 45.1357 128.61 47.0961 128.61 50.3429C128.61 53.3478 130.515 55.3204 133.642 55.3204C134.834 55.3204 135.772 55.0845 136.197 54.8701L135.901 53.4488C135.427 53.6633 134.666 53.8072 133.935 53.8072C131.768 53.8072 130.506 52.4289 130.506 50.251C130.506 47.8802 131.951 46.6244 133.963 46.6244Z" fill="#007DC5"/>
<path d="M184.281 55.1641V46.805H187.121V45.2888H179.665V46.805H182.481V55.1641H184.281Z" fill="#007DC5"/>
<path d="M220.26 45.2888L219.074 47.8189C218.738 48.5356 218.466 49.1483 218.221 49.7792H218.191C217.922 49.1115 217.665 48.5479 217.332 47.822L216.158 45.2888H214.097L217.215 51.0535V55.1641H219.016V51.0045L222.29 45.2919H220.26V45.2888Z" fill="#007DC5"/>
<path d="M141.492 45.1296C138.71 45.1296 136.8 47.2707 136.8 50.3031C136.8 53.1946 138.56 55.3296 141.348 55.3296H141.363C144.063 55.3296 146.065 53.4366 146.065 50.1285C146.059 47.3044 144.365 45.1296 141.492 45.1296ZM141.421 53.8838H141.406C139.685 53.8838 138.68 52.2237 138.686 50.2602C138.683 48.2907 139.63 46.5723 141.428 46.5723C143.225 46.5723 144.148 48.3336 144.148 50.1959C144.145 52.2604 143.161 53.8838 141.421 53.8838Z" fill="#007DC5"/>
<path d="M211.218 46.6244C212.022 46.6244 212.679 46.802 213.137 47.0103L213.529 45.5738C213.162 45.3747 212.327 45.1357 211.141 45.1357C208.13 45.1357 205.865 47.0961 205.865 50.3429C205.865 53.3478 207.77 55.3204 210.897 55.3204C212.089 55.3204 213.027 55.0876 213.452 54.8701L213.156 53.4488C212.682 53.6633 211.921 53.8072 211.19 53.8072C209.023 53.8072 207.76 52.4289 207.76 50.251C207.76 47.8802 209.206 46.6244 211.218 46.6244Z" fill="#007DC5"/>
<path d="M176.611 45.2888H174.811V55.1641H180.665V53.6509H176.611V45.2888Z" fill="#007DC5"/>
<path d="M172.763 50.9311V45.292H170.963V51.0505C170.963 52.9864 170.183 53.8777 168.887 53.8777C167.667 53.8777 166.866 52.9802 166.866 51.0505V45.292H165.066V50.9433C165.066 54.0492 166.548 55.3327 168.82 55.3327C171.201 55.3296 172.763 53.9727 172.763 50.9311Z" fill="#007DC5"/>
<path d="M155.422 45.2888H153.756V48.7347C153.756 50.2448 153.789 51.516 153.918 52.827L153.884 52.8362C153.429 51.7641 152.857 50.6155 152.206 49.5281L149.66 45.2888H147.602V55.1641H149.268V51.6324C149.268 50.012 149.244 48.7072 149.174 47.4268L149.219 47.4176C149.705 48.5356 150.347 49.7456 150.986 50.8237L153.56 55.1671H155.425V45.2888H155.422Z" fill="#007DC5"/>
<path d="M163.125 60.1018H161.324V69.9771H163.125V60.1018Z" fill="#007DC5"/>
<path d="M148.947 65.3457V65.3059C149.867 64.9782 150.723 64.1205 150.723 62.8585C150.723 62.0193 150.418 61.3393 149.883 60.8921C149.222 60.3407 148.085 60.1018 146.866 60.1018C145.646 60.1018 144.839 60.1876 144.157 60.3132V69.9771H145.93V65.9492H146.829C147.844 65.9737 148.308 66.3872 148.59 67.6645C148.862 68.8836 149.097 69.6922 149.247 69.9771H151.081C150.885 69.5942 150.619 68.47 150.311 67.2448C150.066 66.2922 149.656 65.6153 148.947 65.3457ZM146.988 64.6351H145.93V61.5384C146.111 61.4924 146.474 61.4495 147.04 61.4495C148.195 61.4526 148.944 61.9519 148.944 63.0209C148.944 63.9949 148.198 64.6351 146.988 64.6351Z" fill="#007DC5"/>
<path d="M156.91 64.6166C156.528 65.8143 156.17 67.0211 155.908 68.1851H155.877C155.62 66.9905 155.284 65.8357 154.911 64.5891L153.566 60.0986H151.604L154.792 69.9739H156.855L160.26 60.0986H158.344L156.91 64.6166Z" fill="#007DC5"/>
<path d="M175.581 65.5938H179.295V64.1236H175.581V61.5843H179.515V60.1018H173.781V69.974H179.732V68.4915H175.581V65.5938Z" fill="#007DC5"/>
<path d="M170.024 61.4342C170.828 61.4342 171.485 61.6119 171.944 61.8201L172.335 60.3836C171.968 60.1845 171.134 59.9456 169.948 59.9456C166.937 59.9456 164.672 61.9059 164.672 65.1527C164.672 68.1576 166.576 70.1302 169.703 70.1302C170.895 70.1302 171.834 69.8974 172.259 69.6799L171.962 68.2587C171.485 68.4731 170.727 68.617 169.997 68.617C167.829 68.617 166.567 67.2387 166.567 65.0608C166.567 62.69 168.013 61.4342 170.024 61.4342Z" fill="#007DC5"/>
<path d="M132.477 64.2276C131.16 63.7252 130.591 63.3668 130.591 62.6103C130.591 62.0283 131.077 61.4218 132.217 61.4218C133.144 61.4218 133.831 61.7036 134.186 61.8905L134.617 60.4355C134.103 60.1752 133.321 59.9485 132.254 59.9485C130.117 59.9485 128.766 61.1676 128.766 62.7849C128.766 64.2 129.805 65.076 131.435 65.6549C132.679 66.1083 133.18 66.5494 133.18 67.2937C133.18 68.1023 132.538 68.6414 131.389 68.6414C130.472 68.6414 129.588 68.3474 129.008 68.0104L128.607 69.5052C129.145 69.836 130.227 70.1362 131.27 70.1362C133.813 70.1362 135.008 68.7578 135.008 67.1681C135.011 65.7438 134.189 64.88 132.477 64.2276Z" fill="#007DC5"/>
<path d="M138.429 65.5938H142.143V64.1236H138.429V61.5843H142.366V60.1018H136.628V69.974H142.583V68.4915H138.429V65.5938Z" fill="#007DC5"/>
<path d="M184.746 64.2276C183.431 63.7252 182.86 63.3668 182.86 62.6103C182.86 62.0283 183.346 61.4218 184.486 61.4218C185.412 61.4218 186.1 61.7036 186.454 61.8905L186.885 60.4355C186.372 60.1752 185.589 59.9485 184.523 59.9485C182.386 59.9485 181.035 61.1676 181.035 62.7849C181.035 64.2 182.074 65.076 183.703 65.6549C184.947 66.1083 185.449 66.5494 185.449 67.2937C185.449 68.1023 184.807 68.6414 183.657 68.6414C182.74 68.6414 181.857 68.3474 181.276 68.0104L180.876 69.5052C181.414 69.836 182.496 70.1362 183.538 70.1362C186.082 70.1362 187.277 68.7578 187.277 67.1681C187.28 65.7438 186.457 64.88 184.746 64.2276Z" fill="#007DC5"/>
<path d="M35.7991 37.233C35.7991 32.761 38.7 30.0778 42.9398 30.0778V22.4753C42.9398 20.2393 41.4511 18.7476 39.3694 18.7476C37.2877 18.7476 35.7991 20.2393 35.7991 22.4753V37.233Z" fill="url(#paint0_linear_2504_274)"/>
<path d="M48.4451 70.2497C50.2303 70.2497 51.8657 69.9526 53.3544 69.4288C45.8407 70.6969 42.9398 65.5541 42.9398 59.7404V35.8915H51.6426C53.6509 35.8915 54.9898 34.7 54.9898 32.9847C54.9898 31.2694 53.6509 30.0779 51.6426 30.0779H42.9398C38.7 30.0779 35.7991 32.7611 35.7991 37.2332V57.728C35.7991 65.9278 40.4852 70.2497 48.4451 70.2497Z" fill="url(#paint1_linear_2504_274)"/>
<path d="M53.3543 69.4287C56.3286 68.3107 58.6365 66.2248 60.1221 63.1678L56.7749 57.1306C55.2862 61.6026 52.6848 63.9887 49.1145 63.9887C45.3943 63.9887 42.9397 61.8262 42.9397 56.907V59.7403C42.9397 65.554 45.8406 70.6968 53.3543 69.4287Z" fill="url(#paint2_linear_2504_274)"/>
<path d="M83.9227 68.2371C66.9635 70.7702 61.6079 61.6791 61.6079 49.9783C61.6079 41.4814 66.8137 35.6677 74.3273 35.6677C77.0785 35.6677 79.3864 36.265 81.4681 37.233C82.434 37.6802 83.2533 37.8303 83.9961 37.8303C85.7813 37.8303 86.9704 36.6387 86.9704 34.8499C86.9704 33.7319 86.3009 32.6139 84.7389 31.8696C81.9113 30.4544 78.2676 29.6335 74.3243 29.6335C62.5708 29.6335 54.4641 37.9803 54.4641 50.1284C54.4641 62.0528 62.2743 70.3261 74.8439 70.3261C78.2706 70.323 81.2449 69.6522 83.9227 68.2371Z" fill="url(#paint3_linear_2504_274)"/>
<path d="M54.4702 50.1254C54.4702 37.9774 62.5769 29.6306 74.3304 29.6306C78.2737 29.6306 81.9174 30.4515 84.745 31.8666C86.307 32.611 86.9765 33.729 86.9765 34.847C86.9765 36.6358 85.7874 37.8273 84.0022 37.8273C83.2594 37.8273 82.4401 37.6772 81.4742 37.23C78.9462 36.0385 76.4916 35.6648 74.3334 35.6648C63.9892 35.6679 54.4702 42.2259 54.4702 50.1254Z" fill="url(#paint4_linear_2504_274)"/>
<path d="M98.8736 32.0166C98.2041 32.6874 97.8312 33.5083 97.8312 34.4762C97.8312 36.9359 100.136 40.587 105.492 44.3147L111.59 48.5632C116.053 51.6936 117.838 54.6739 117.838 59.146C117.838 62.3499 116.573 65.1097 114.491 67.0456C115.234 66.3748 115.68 65.4804 115.68 64.2888C115.68 61.6791 113.076 57.5808 107.497 53.706L101.918 49.8313C97.2321 46.5507 95.3735 43.4969 95.3735 39.322C95.3735 36.8623 96.2661 34.6263 97.7548 32.9876C98.1308 32.6108 98.5007 32.3137 98.8736 32.0166Z" fill="url(#paint5_linear_2504_274)"/>
<path d="M94.0408 65.4804C94.0408 66.6719 94.6368 67.6429 96.1989 68.3872C98.357 69.4317 101.851 70.3261 104.975 70.3261C108.918 70.3261 112.189 69.1346 114.497 67.0456C115.24 66.3748 115.686 65.4804 115.686 64.2889C115.686 61.6792 113.082 57.5808 107.503 53.7061C110.031 55.4949 111.073 56.9866 111.073 59.146C111.073 62.35 108.545 64.5125 104.899 64.5125C101.402 64.5125 98.4273 62.7237 96.7919 62.7237C95.1565 62.7237 94.0408 63.8417 94.0408 65.4804Z" fill="url(#paint6_linear_2504_274)"/>
<path d="M105.494 44.3147C103.113 42.5994 102.074 41.0342 102.074 39.1719C102.074 36.7858 104.009 35.2971 106.76 35.2971C110.257 35.2971 111.892 36.9358 113.974 36.9358C115.61 36.9358 116.725 35.8178 116.725 34.1791C116.725 32.9876 116.129 32.0166 114.567 31.2723C112.113 30.0807 109.435 29.6335 106.534 29.6335C103.483 29.6335 100.805 30.528 98.8734 32.0197C98.204 32.6905 97.8311 33.5114 97.8311 34.4793C97.8311 36.9358 100.139 40.587 105.494 44.3147Z" fill="url(#paint7_linear_2504_274)"/>
<path d="M61.6108 49.9784C61.6108 61.6792 66.9664 70.7734 83.9256 68.2372C89.3546 65.4039 93.2245 59.6668 95.8992 50.8728L97.4612 45.73C95.9726 43.791 95.3795 41.6316 95.3795 39.319C95.3795 36.8594 96.2721 34.6233 97.7608 32.9846C95.5293 35.3707 93.6708 38.8718 92.1821 43.791L90.4703 49.4546C87.4196 59.4432 82.5867 64.2124 75.0731 64.2124C66.8166 64.2124 61.6108 58.4753 61.6108 49.9784Z" fill="url(#paint8_linear_2504_274)"/>
</g>
<defs>
<linearGradient id="paint0_linear_2504_274" x1="39.3704" y1="20.7161" x2="39.3704" y2="35.4732" gradientUnits="userSpaceOnUse">
<stop stop-color="#FFC708"/>
<stop offset="0.9997" stop-color="#F05731"/>
<stop offset="1" stop-color="#F05731"/>
</linearGradient>
<linearGradient id="paint1_linear_2504_274" x1="47.4655" y1="32.0561" x2="43.5988" y2="59.9755" gradientUnits="userSpaceOnUse">
<stop stop-color="#F80000"/>
<stop offset="1" stop-color="#EE3984"/>
</linearGradient>
<linearGradient id="paint2_linear_2504_274" x1="42.1181" y1="65.0866" x2="62.2887" y2="58.6993" gradientUnits="userSpaceOnUse">
<stop stop-color="#EE3984"/>
<stop offset="0.9997" stop-color="#7800DA"/>
<stop offset="1" stop-color="#7800DA"/>
</linearGradient>
<linearGradient id="paint3_linear_2504_274" x1="69.5268" y1="39.8033" x2="76.9218" y2="65.8277" gradientUnits="userSpaceOnUse">
<stop stop-color="#FF0000"/>
<stop offset="0.9994" stop-color="#EE3984"/>
<stop offset="1" stop-color="#EE3984"/>
</linearGradient>
<linearGradient id="paint4_linear_2504_274" x1="54.4695" y1="39.8788" x2="86.9733" y2="39.8788" gradientUnits="userSpaceOnUse">
<stop stop-color="#FFC708"/>
<stop offset="1" stop-color="#FA3B00"/>
</linearGradient>
<linearGradient id="paint5_linear_2504_274" x1="95.3782" y1="49.5304" x2="117.841" y2="49.5304" gradientUnits="userSpaceOnUse">
<stop stop-color="#FF0000"/>
<stop offset="1" stop-color="#EE3984"/>
</linearGradient>
<linearGradient id="paint6_linear_2504_274" x1="113.498" y1="60.3943" x2="93.7171" y2="65.6197" gradientUnits="userSpaceOnUse">
<stop stop-color="#EE3984"/>
<stop offset="1" stop-color="#7800DA"/>
</linearGradient>
<linearGradient id="paint7_linear_2504_274" x1="97.8326" y1="36.972" x2="116.725" y2="36.972" gradientUnits="userSpaceOnUse">
<stop stop-color="#FFC708"/>
<stop offset="1" stop-color="#F05731"/>
</linearGradient>
<linearGradient id="paint8_linear_2504_274" x1="73.0676" y1="61.1737" x2="86.8736" y2="38.6633" gradientUnits="userSpaceOnUse">
<stop stop-color="#EE3984"/>
<stop offset="1" stop-color="#7800DA"/>
</linearGradient>
<clipPath id="clip0_2504_274">
<rect width="259" height="90" fill="white"/>
</clipPath>
</defs>
</svg>
