<svg width="259" height="90" viewBox="0 0 259 90" fill="none" xmlns="http://www.w3.org/2000/svg">
<g clip-path="url(#clip0_2504_348)">
<path fill-rule="evenodd" clip-rule="evenodd" d="M53.4546 19.8503L28.994 19.8488V24.9339L37.9093 24.9357V41.6211H44.5261L44.5241 24.9339L53.4546 24.935V19.8503Z" fill="#656262"/>
<mask id="mask0_2504_348" style="mask-type:luminance" maskUnits="userSpaceOnUse" x="11" y="-7" width="238" height="106">
<path d="M11.576 -6.74264H248.081V98.1716H11.576V-6.74264Z" fill="white"/>
</mask>
<g mask="url(#mask0_2504_348)">
<path fill-rule="evenodd" clip-rule="evenodd" d="M119.986 56.7498C119.986 54.8453 118.238 53.3146 116.091 53.3146H116.046H107.483C106.731 53.3146 106.355 53.6486 105.956 54.1787C105.934 54.1976 103.389 57.4572 103.389 57.4572H111.687C112.661 57.4966 113.435 58.2029 113.435 59.0863V69.2761H119.986V56.7888V56.7498Z" fill="#E51635"/>
<path fill-rule="evenodd" clip-rule="evenodd" d="M96.8393 47.5035H103.389V69.2761H96.8393V47.5035Z" fill="#E51635"/>
<path fill-rule="evenodd" clip-rule="evenodd" d="M153.753 53.3147H135.143V69.2759H141.737V57.4574H149.216C150.235 57.4574 151.076 58.1834 151.076 59.0864V69.2759H157.648V56.7499C157.648 54.8454 155.9 53.3147 153.753 53.3147Z" fill="#E51635"/>
<path fill-rule="evenodd" clip-rule="evenodd" d="M60.4601 47.5035H28.9939V69.2761H35.5216V52.5882H42.5141C43.178 52.5882 43.7093 53.0793 43.7093 53.6683V69.2761H50.2592V53.6683C50.2592 53.0589 50.8127 52.5882 51.4762 52.5882H51.4984H56.6321C57.6278 52.5882 58.4466 53.2949 58.4466 54.1787V69.2761H64.9747V51.5081C64.9747 49.29 62.9607 47.5035 60.4601 47.5035Z" fill="#E51635"/>
<path fill-rule="evenodd" clip-rule="evenodd" d="M124.301 58.4974V69.2759H130.851V59.6361V53.4917C130.851 53.4917 127.819 55.1602 125.673 56.3576C124.853 56.8282 124.301 57.614 124.301 58.4974Z" fill="#E51635"/>
<path fill-rule="evenodd" clip-rule="evenodd" d="M124.301 47.4842H130.851V51.5081L124.301 55.3557V47.4842Z" fill="#E51635"/>
<path fill-rule="evenodd" clip-rule="evenodd" d="M192.678 53.3147C191.039 53.3147 189.978 54.4338 189.978 55.6316V69.2759H196.571V59.1057C196.571 58.203 197.302 57.437 198.342 57.437H203.233C203.94 57.3987 204.539 57.0253 204.914 56.5343C204.936 56.5146 207.481 53.3147 207.481 53.3147H192.678Z" fill="#E51635"/>
<path fill-rule="evenodd" clip-rule="evenodd" d="M179.091 47.5035V53.3146V65.2908H169.597C168.934 65.2908 168.468 64.7797 168.468 64.3481V59.0863H168.491C168.491 58.1833 169.309 57.4572 170.328 57.4572H175.129C175.837 57.4572 176.568 57.0842 176.877 56.6525L179.091 53.3146H165.77C163.644 53.3146 161.897 54.8453 161.897 56.7498V56.7888V66.4096C161.897 68.255 163.556 69.2761 165.083 69.2761H185.663V47.5035H179.091Z" fill="#E51635"/>
<path fill-rule="evenodd" clip-rule="evenodd" d="M226.71 53.3147H211.574C210.822 53.3147 210.137 53.6283 209.716 54.1398L207.171 57.4574H222.418C223.369 57.4963 224.143 58.2231 224.143 59.0864L224.121 65.4276H212.703V63.6018C212.703 63.2491 213.035 62.9537 213.433 62.9537H221.422V60.5986C221.422 60.0292 221.024 59.7145 220.47 59.7145H209.405C208.034 59.7145 206.95 60.6762 206.95 61.8743V67.6661C206.95 67.7051 206.95 67.7255 206.972 67.7648C207.127 68.6275 207.968 69.2759 208.986 69.2759H230.583V56.7499C230.583 54.8454 228.857 53.3147 226.71 53.3147Z" fill="#E51635"/>
<path fill-rule="evenodd" clip-rule="evenodd" d="M88.8951 53.3147H73.7592C73.0291 53.3147 72.3213 53.6283 71.923 54.1398L69.3555 57.4574H84.6023C85.554 57.4963 86.3284 58.2231 86.3284 59.0864V65.4276H74.8879V63.6018C74.8879 63.2491 75.2197 62.9537 75.618 62.9537H83.6062V60.5986C83.6062 60.0292 83.2083 59.7145 82.6548 59.7145H71.5904C70.2186 59.7145 69.135 60.6762 69.135 61.8743V67.6661C69.135 67.7051 69.135 67.7255 69.1568 67.7648C69.3116 68.6275 70.1521 69.2759 71.1703 69.2759H92.7678V56.7499C92.7678 54.8454 91.0421 53.3147 88.8951 53.3147Z" fill="#E51635"/>
<path fill-rule="evenodd" clip-rule="evenodd" d="M130.851 29.3677C130.851 27.4636 129.102 25.9321 126.956 25.9321H126.911H118.122C117.369 25.9321 116.993 26.2658 116.595 26.7955C116.573 26.8152 114.028 30.0744 114.028 30.0744H122.552C123.526 30.1141 124.3 30.8208 124.3 31.7039V41.8933H130.851V29.4071V29.3677ZM107.478 20.121H114.028V41.8933H107.478V20.121Z" fill="#656262"/>
<path fill-rule="evenodd" clip-rule="evenodd" d="M89.2997 36.1213H89.3219C89.3219 37.0244 90.1447 37.7508 91.1679 37.7508L103.406 37.75V41.8931H86.5861C84.4513 41.8931 82.6944 40.3616 82.6944 38.4575V38.4181V26.6448V29.0953C82.6944 27.1912 84.4513 25.6594 86.5861 25.6594H103.366L102.334 27.9366C102.115 28.4167 102.002 28.8247 101.505 29.1347C101.15 29.3565 100.85 29.511 100.394 29.511H91.1679C90.1447 29.511 89.3219 30.2374 89.3219 31.1408H89.2997V36.1213Z" fill="#656262"/>
<path fill-rule="evenodd" clip-rule="evenodd" d="M59.9094 41.6934H73.9227C74.6528 41.6934 75.3606 41.379 75.7593 40.869L78.3264 37.5507H64.2022C63.2513 37.5117 62.4761 36.785 62.4761 35.9213V29.5801H72.794V31.4059C72.794 31.7593 72.4622 32.0536 72.0635 32.0536H65.1987V34.4098C65.1987 34.9788 65.597 35.2929 66.1501 35.2929H76.0911C77.4629 35.2929 78.5473 34.3315 78.5473 33.1337V27.3416C78.5473 27.3026 78.5473 27.2833 78.5251 27.244C78.3703 26.3799 77.5294 25.7322 76.512 25.7322H58.4354H56.037V27.7707V38.2574C56.037 40.1619 57.7632 41.6934 59.9094 41.6934Z" fill="#656262"/>
</g>
</g>
<defs>
<clipPath id="clip0_2504_348">
<rect width="203" height="51" fill="white" transform="translate(28 19)"/>
</clipPath>
</defs>
</svg>
