<svg width="259" height="90" viewBox="0 0 259 90" fill="none" xmlns="http://www.w3.org/2000/svg">
<g clip-path="url(#clip0_2504_349)">
<path d="M168.715 36.2287C169.261 38.3063 171.394 39.5528 173.501 38.9815C175.581 38.4361 176.83 36.3066 176.257 34.2031C175.711 32.1255 173.579 30.879 171.472 31.4503C169.417 32.0216 168.169 34.1511 168.715 36.2287Z" fill="#2A4C87"/>
<path d="M163.435 40.3838C164.84 39.9942 165.698 38.5399 165.308 37.1376C164.918 35.7352 163.461 34.8782 162.057 35.2678C160.652 35.6573 159.794 37.1116 160.184 38.514C160.548 39.9163 162.005 40.7473 163.435 40.3838Z" fill="#2A4C87"/>
<path d="M155.633 41.7342C156.673 41.4485 157.297 40.3837 157.011 39.3449C156.725 38.3062 155.659 37.6829 154.618 37.9686C153.578 38.2542 152.954 39.319 153.24 40.3578C153.526 41.3965 154.592 42.0198 155.633 41.7342Z" fill="#2A4C87"/>
<path d="M149.573 42.6432C150.223 42.4614 150.613 41.7862 150.457 41.137C150.301 40.4877 149.599 40.0982 148.949 40.254C148.298 40.4358 147.908 41.111 148.064 41.7602C148.22 42.4095 148.897 42.799 149.573 42.6432Z" fill="#2E4E88"/>
<path d="M165.828 28.3339C166.816 30.0219 168.975 30.6192 170.666 29.6324C172.356 28.6455 172.954 26.4901 171.966 24.802C170.978 23.114 168.819 22.5167 167.128 23.5035C165.438 24.4904 164.84 26.6459 165.828 28.3339Z" fill="#1F3D70"/>
<path d="M157.999 32.8266C158.676 34.0212 160.184 34.4107 161.381 33.7355C162.577 33.0603 162.967 31.5541 162.291 30.3595C161.615 29.1649 160.106 28.7753 158.91 29.4505C157.739 30.1258 157.323 31.632 157.999 32.8266Z" fill="#1F3D70"/>
<path d="M152.434 33.9953C151.575 34.4887 151.289 35.5534 151.783 36.4104C152.278 37.2674 153.344 37.5531 154.202 37.0597C155.061 36.5662 155.347 35.5015 154.852 34.6445C154.384 33.8135 153.292 33.5278 152.434 33.9953Z" fill="#1F3D70"/>
<path d="M147.466 37.5792C146.92 37.8908 146.712 38.592 147.024 39.1373C147.336 39.6827 148.038 39.8905 148.584 39.5788C149.131 39.2672 149.339 38.566 149.027 38.0207C148.714 37.4753 148.012 37.2675 147.466 37.5792Z" fill="#1F3D70"/>
<path d="M165.438 21.4001C166.686 20.1535 166.686 18.1539 165.438 16.9073C164.19 15.6608 162.187 15.6608 160.938 16.9073C159.69 18.1539 159.69 20.1535 160.938 21.4001C162.161 22.6466 164.19 22.6466 165.438 21.4001Z" fill="#194C88"/>
<path d="M157.661 24.6463C156.751 23.7374 155.295 23.7374 154.41 24.6463C153.5 25.5552 153.5 27.0095 154.41 27.8925C155.321 28.8014 156.777 28.8014 157.661 27.8925C158.572 26.9836 158.572 25.5293 157.661 24.6463Z" fill="#194C88"/>
<path d="M149.339 30.6972C148.714 31.3204 148.714 32.3333 149.339 32.9565C149.963 33.5798 150.977 33.5798 151.601 32.9565C152.226 32.3333 152.226 31.3204 151.601 30.7231C150.977 30.0739 149.963 30.0739 149.339 30.6972Z" fill="#194C88"/>
<path d="M145.411 36.8779C145.827 37.2934 146.504 37.2934 146.92 36.8779C147.336 36.4624 147.336 35.7872 146.92 35.3717C146.504 34.9562 145.827 34.9562 145.411 35.3717C144.995 35.7872 144.995 36.4624 145.411 36.8779Z" fill="#194C88"/>
<path d="M154.228 16.0503C155.659 16.8814 157.505 16.3879 158.338 14.9596C159.17 13.5313 158.676 11.6874 157.245 10.8564C155.815 10.0254 153.968 10.5188 153.136 11.9471C152.278 13.3755 152.772 15.2193 154.228 16.0503Z" fill="#3468A3"/>
<path d="M148.844 21.1143C148.246 22.1272 148.61 23.4256 149.625 24.0229C150.639 24.6202 151.939 24.2567 152.538 23.2438C153.136 22.231 152.772 20.9325 151.757 20.3352C150.717 19.7379 149.417 20.1015 148.844 21.1143Z" fill="#3468A3"/>
<path d="M147.44 27.7625C146.764 27.373 145.906 27.6067 145.515 28.2819C145.125 28.9571 145.359 29.8141 146.036 30.2037C146.712 30.5932 147.57 30.3595 147.96 29.6843C148.35 29.0091 148.116 28.1521 147.44 27.7625Z" fill="#3468A3"/>
<path d="M144.163 33.4239C143.695 33.1642 143.097 33.3201 142.837 33.7875C142.576 34.255 142.732 34.8523 143.201 35.112C143.669 35.3717 144.267 35.2158 144.527 34.7484C144.787 34.2809 144.631 33.6836 144.163 33.4239Z" fill="#3468A3"/>
<path d="M146.322 12.5963C147.83 13.0118 149.391 12.1029 149.781 10.5967C150.197 9.09042 149.287 7.53224 147.778 7.14269C146.27 6.75315 144.709 7.63612 144.319 9.14236C143.903 10.6486 144.813 12.2068 146.322 12.5963Z" fill="#4C8DCB"/>
<path d="M143.929 21.4778C144.969 21.7635 146.036 21.1402 146.322 20.1014C146.608 19.0626 145.984 17.9979 144.943 17.7122C143.903 17.4265 142.837 18.0498 142.55 19.0886C142.29 20.1274 142.889 21.1921 143.929 21.4778Z" fill="#4C8DCB"/>
<path d="M142.056 28.4898C142.759 28.6716 143.487 28.2561 143.669 27.5549C143.851 26.8537 143.435 26.1266 142.732 25.9448C142.03 25.763 141.302 26.1785 141.12 26.8797C140.938 27.5549 141.354 28.282 142.056 28.4898Z" fill="#4C8DCB"/>
<path d="M139.976 32.8527C139.846 33.3201 140.132 33.8135 140.6 33.9434C141.068 34.0732 141.562 33.7876 141.692 33.3201C141.822 32.8527 141.536 32.3592 141.068 32.2294C140.574 32.0995 140.08 32.3852 139.976 32.8527Z" fill="#4C8DCB"/>
<path d="M137.739 11.2978C139.195 11.2978 140.392 10.1032 140.392 8.6489C140.392 7.1946 139.195 6 137.739 6C136.282 6 135.086 7.1946 135.086 8.6489C135.086 10.1292 136.282 11.2978 137.739 11.2978Z" fill="#3498B3"/>
<path d="M137.739 16.9592C136.751 16.9592 135.97 17.7383 135.97 18.7252C135.97 19.712 136.751 20.4911 137.739 20.4911C138.727 20.4911 139.507 19.712 139.507 18.7252C139.507 17.7643 138.727 16.9592 137.739 16.9592Z" fill="#3498B3"/>
<path d="M138.987 26.594C138.987 25.9187 138.441 25.3474 137.739 25.3474C137.037 25.3474 136.49 25.8928 136.49 26.594C136.49 27.2951 137.037 27.8405 137.739 27.8405C138.441 27.8405 138.987 27.2692 138.987 26.594Z" fill="#3498B3"/>
<path d="M137.739 31.8918C137.297 31.8918 136.933 32.2554 136.933 32.6969C136.933 33.1384 137.297 33.502 137.739 33.502C138.181 33.502 138.545 33.1384 138.545 32.6969C138.545 32.2554 138.181 31.8918 137.739 31.8918Z" fill="#3498B3"/>
<path d="M129.078 12.2847C130.404 11.9212 131.185 10.5707 130.821 9.24629C130.456 7.92184 129.104 7.14275 127.778 7.50632C126.451 7.8699 125.671 9.22032 126.035 10.5448C126.399 11.8433 127.778 12.6223 129.078 12.2847Z" fill="#0AA496"/>
<path d="M129.52 20.0235C129.754 20.8805 130.613 21.3739 131.471 21.1402C132.329 20.9065 132.823 20.0495 132.589 19.1925C132.355 18.3355 131.497 17.842 130.639 18.0758C129.806 18.3095 129.286 19.1925 129.52 20.0235Z" fill="#0AA496"/>
<path d="M131.991 27.5288C132.147 28.1521 132.797 28.5157 133.395 28.3339C134.02 28.1781 134.384 27.5288 134.202 26.9315C134.046 26.3082 133.395 25.9447 132.797 26.1265C132.173 26.2823 131.835 26.9055 131.991 27.5288Z" fill="#0AA496"/>
<path d="M133.994 33.294C134.098 33.6835 134.488 33.8913 134.852 33.7874C135.242 33.6835 135.45 33.294 135.346 32.9304C135.242 32.5409 134.852 32.3331 134.488 32.437C134.124 32.5409 133.89 32.9045 133.994 33.294Z" fill="#0AA496"/>
<path d="M120.937 15.4789C122.03 14.8556 122.42 13.4273 121.796 12.3366C121.171 11.2459 119.741 10.8563 118.649 11.4796C117.556 12.1029 117.166 13.5312 117.79 14.6219C118.441 15.7386 119.845 16.1022 120.937 15.4789Z" fill="#00AA75"/>
<path d="M125.541 23.4256C126.217 23.0361 126.451 22.1791 126.061 21.5039C125.671 20.8286 124.813 20.5949 124.136 20.9845C123.46 21.374 123.226 22.231 123.616 22.9062C123.98 23.5814 124.865 23.8152 125.541 23.4256Z" fill="#00AA75"/>
<path d="M129.286 29.944C129.806 29.6583 129.962 29.0091 129.676 28.4897C129.39 27.9703 128.74 27.8145 128.22 28.1001C127.7 28.3858 127.544 29.035 127.83 29.5544C128.142 30.0479 128.792 30.2296 129.286 29.944Z" fill="#00AA75"/>
<path d="M132.355 33.9953C132.173 33.7096 131.809 33.6058 131.497 33.7616C131.211 33.9434 131.107 34.3069 131.263 34.6186C131.445 34.9043 131.809 35.0081 132.095 34.8523C132.433 34.6705 132.537 34.281 132.355 33.9953Z" fill="#00AA75"/>
<path d="M113.837 20.6987C114.669 19.8677 114.669 18.5173 113.837 17.6863C113.005 16.8552 111.652 16.8552 110.82 17.6863C109.988 18.5173 109.988 19.8677 110.82 20.6987C111.678 21.5298 113.031 21.5298 113.837 20.6987Z" fill="#4FBA6A"/>
<path d="M120.365 25.4514C119.871 24.9579 119.091 24.9579 118.623 25.4514C118.128 25.9448 118.128 26.7239 118.623 27.1913C119.117 27.6848 119.897 27.6848 120.365 27.1913C120.833 26.6979 120.833 25.9188 120.365 25.4514Z" fill="#4FBA6A"/>
<path d="M125.749 31.1906C125.359 30.8011 124.761 30.8011 124.37 31.1906C123.98 31.5801 123.98 32.1774 124.37 32.567C124.761 32.9565 125.359 32.9565 125.749 32.567C126.113 32.1774 126.113 31.5801 125.749 31.1906Z" fill="#4FBA6A"/>
<path d="M129.754 35.8131C129.546 35.6054 129.208 35.6313 129.026 35.8391C128.818 36.0468 128.844 36.3844 129.052 36.5662C129.26 36.748 129.572 36.748 129.78 36.5662C129.962 36.3585 129.962 36.0209 129.754 35.8131Z" fill="#4FBA6A"/>
<path d="M105.618 28.256C106.555 28.8014 107.751 28.4638 108.271 27.5549C108.817 26.62 108.479 25.4254 107.569 24.906C106.633 24.3606 105.436 24.6982 104.916 25.6071C104.37 26.5161 104.682 27.7107 105.618 28.256Z" fill="#7EC45F"/>
<path d="M115.918 30.749C115.398 30.4634 114.773 30.6452 114.461 31.1386C114.175 31.658 114.357 32.2812 114.851 32.5929C115.372 32.8785 115.996 32.7227 116.308 32.2033C116.594 31.6839 116.412 31.0347 115.918 30.749Z" fill="#7EC45F"/>
<path d="M122.654 34.8264C122.238 34.5927 121.692 34.7225 121.458 35.164C121.223 35.5795 121.354 36.1249 121.796 36.3586C122.212 36.5923 122.758 36.4625 122.992 36.047C123.226 35.6314 123.07 35.0861 122.654 34.8264Z" fill="#7EC45F"/>
<path d="M173.735 40.2539C171.394 40.2539 169.469 42.1497 169.469 44.5129C169.469 46.8502 171.368 48.772 173.735 48.772C176.075 48.772 177.974 46.8762 178 44.5389C177.974 42.1757 176.075 40.2539 173.735 40.2539Z" fill="#4C609B"/>
<path d="M166.686 44.5131C166.686 42.825 165.334 41.4746 163.643 41.4746C161.953 41.4746 160.6 42.825 160.6 44.5131C160.6 46.2011 161.953 47.5515 163.643 47.5515C165.308 47.5515 166.686 46.2011 166.686 44.5131Z" fill="#4C609B"/>
<path d="M155.763 42.4353C154.618 42.4353 153.682 43.3702 153.682 44.5129C153.682 45.6555 154.618 46.5904 155.763 46.5904C156.907 46.5904 157.843 45.6555 157.843 44.5129C157.843 43.3702 156.907 42.4353 155.763 42.4353Z" fill="#4C609B"/>
<path d="M151.003 44.513C151.003 43.7599 150.405 43.1626 149.651 43.1626C148.896 43.1626 148.298 43.7599 148.298 44.513C148.298 45.2661 148.896 45.8634 149.651 45.8634C150.405 45.8634 151.003 45.2661 151.003 44.513Z" fill="#54669F"/>
<path d="M173.501 50.0187C171.42 49.4473 169.287 50.6939 168.715 52.7714C168.143 54.849 169.391 56.9785 171.472 57.5498C173.553 58.1212 175.685 56.8746 176.257 54.7971V54.7711C176.804 52.7195 175.555 50.59 173.501 50.0187Z" fill="#746FA7"/>
<path d="M162.057 53.7322C163.461 54.1217 164.918 53.2647 165.308 51.8623C165.698 50.46 164.84 49.0057 163.435 48.6161C162.031 48.2266 160.574 49.0836 160.184 50.486C159.794 51.8883 160.626 53.3426 162.057 53.7322Z" fill="#746FA7"/>
<path d="M154.618 51.0313C155.659 51.3169 156.725 50.6937 157.011 49.6549C157.297 48.6161 156.673 47.5513 155.633 47.2657C154.592 46.98 153.526 47.6033 153.24 48.6421C152.98 49.6809 153.578 50.7456 154.618 51.0313Z" fill="#746FA7"/>
<path d="M148.922 48.7719C149.573 48.9537 150.249 48.5642 150.431 47.889C150.613 47.2397 150.223 46.5645 149.547 46.3827C148.896 46.201 148.22 46.5905 148.038 47.2657C147.856 47.889 148.246 48.5902 148.922 48.7719Z" fill="#746FA7"/>
<path d="M170.666 59.3676C168.975 58.3807 166.816 58.978 165.828 60.666C164.84 62.3541 165.438 64.5096 167.128 65.4964C168.819 66.4832 170.978 65.8859 171.966 64.1979C172.928 62.5099 172.356 60.3544 170.666 59.3676Z" fill="#99558E"/>
<path d="M162.317 58.6406C162.993 57.446 162.603 55.9397 161.407 55.2645C160.21 54.5893 158.702 54.9788 158.025 56.1734C157.349 57.368 157.739 58.8743 158.936 59.5495C160.106 60.2247 161.615 59.8092 162.317 58.6406Z" fill="#99558E"/>
<path d="M154.852 54.3556C155.347 53.4986 155.061 52.4338 154.202 51.9404C153.344 51.447 152.278 51.7326 151.783 52.5896C151.289 53.4466 151.575 54.5114 152.434 55.0048C153.292 55.4723 154.358 55.1866 154.852 54.3556Z" fill="#99558E"/>
<path d="M149.053 50.9795C149.365 50.4342 149.183 49.733 148.636 49.3954C148.09 49.0838 147.388 49.2655 147.05 49.8109C146.712 50.3563 146.92 51.0575 147.466 51.3951H147.492C148.038 51.7067 148.74 51.5249 149.053 50.9795Z" fill="#99558E"/>
<path d="M160.912 67.6C159.664 68.8465 159.664 70.8462 160.912 72.0928C162.161 73.3393 164.163 73.3393 165.412 72.0928C166.66 70.8462 166.66 68.8465 165.412 67.6C164.189 66.3794 162.161 66.3794 160.912 67.6Z" fill="#AF3379"/>
<path d="M157.661 64.3537C158.572 63.4448 158.572 61.9905 157.661 61.1075C156.751 60.1985 155.295 60.1985 154.41 61.1075C153.5 62.0164 153.5 63.4707 154.41 64.3537C155.295 65.2626 156.751 65.2626 157.661 64.3537Z" fill="#AF3379"/>
<path d="M151.601 58.303C152.226 57.6797 152.226 56.6669 151.601 56.0436C150.977 55.4204 149.963 55.4204 149.339 56.0436C148.714 56.6669 148.714 57.6797 149.339 58.277C149.963 58.9263 150.977 58.9263 151.601 58.303Z" fill="#AF3379"/>
<path d="M145.411 53.6023C145.827 54.0178 146.504 54.0178 146.92 53.6023C147.336 53.1868 147.336 52.5116 146.92 52.0961C146.504 51.6805 145.827 51.6805 145.411 52.0961C144.995 52.5116 144.995 53.1868 145.411 53.6023Z" fill="#AF3379"/>
<path d="M154.228 72.9497C152.798 73.7807 152.304 75.6246 153.136 77.0529C153.968 78.4812 155.815 78.9746 157.245 78.1436C158.676 77.3126 159.17 75.4687 158.338 74.0404C157.505 72.6121 155.659 72.1186 154.228 72.9497Z" fill="#BE266A"/>
<path d="M152.512 65.7821C151.913 64.7692 150.639 64.4057 149.599 65.003C148.584 65.6003 148.22 66.8728 148.818 67.9116C149.417 68.9244 150.691 69.288 151.731 68.6907C152.746 68.0934 153.11 66.7949 152.512 65.7821Z" fill="#BE266A"/>
<path d="M147.44 61.2374C148.116 60.8478 148.35 59.9908 147.96 59.3156C147.57 58.6404 146.712 58.4067 146.036 58.7962C145.359 59.1858 145.125 60.0428 145.515 60.718C145.906 61.3932 146.764 61.6269 147.44 61.2374Z" fill="#BE266A"/>
<path d="M143.201 53.888C142.732 54.1477 142.576 54.745 142.837 55.2125C143.097 55.68 143.695 55.8358 144.163 55.5761C144.631 55.3164 144.787 54.7191 144.527 54.2516C144.267 53.7842 143.669 53.6283 143.201 53.888Z" fill="#BE266A"/>
<path d="M146.322 76.4038C144.813 76.8193 143.903 78.3515 144.319 79.8577C144.735 81.364 146.27 82.2729 147.778 81.8574C149.287 81.4419 150.197 79.9096 149.781 78.4034C149.391 76.8972 147.83 75.9882 146.322 76.4038Z" fill="#D4525C"/>
<path d="M144.943 71.2617C145.984 70.9761 146.608 69.9113 146.322 68.8725C146.036 67.8337 144.969 67.2105 143.929 67.4961C142.889 67.7818 142.29 68.8466 142.55 69.8853C142.837 70.9501 143.903 71.5474 144.943 71.2617Z" fill="#D4525C"/>
<path d="M143.669 61.4451C143.487 60.7439 142.759 60.3284 142.056 60.5102C141.354 60.692 140.938 61.4191 141.12 62.1203C141.302 62.8215 142.03 63.237 142.732 63.0552C143.461 62.8994 143.877 62.1723 143.669 61.4451Z" fill="#D4525C"/>
<path d="M141.666 55.6801C141.536 55.2126 141.042 54.9269 140.574 55.0568C140.106 55.1866 139.82 55.6801 139.95 56.1475C140.08 56.615 140.548 56.9006 141.042 56.7708C141.51 56.6409 141.796 56.1475 141.666 55.6801Z" fill="#D4525C"/>
<path d="M137.739 77.7021C136.282 77.7021 135.086 78.8967 135.086 80.351C135.086 81.8053 136.282 83 137.739 83C139.195 83 140.392 81.8313 140.392 80.351C140.392 78.8967 139.221 77.7021 137.739 77.7021Z" fill="#E0654F"/>
<path d="M135.97 70.275C135.97 71.2618 136.751 72.0409 137.739 72.0409C138.727 72.0409 139.507 71.2618 139.507 70.275C139.507 69.2881 138.727 68.509 137.739 68.509C136.777 68.509 135.97 69.2881 135.97 70.275Z" fill="#E0654F"/>
<path d="M137.739 63.6266C138.415 63.6266 138.987 63.0813 138.987 62.3801C138.987 61.6789 138.441 61.1335 137.739 61.1335C137.063 61.1335 136.49 61.6789 136.49 62.3801C136.516 63.0813 137.063 63.6266 137.739 63.6266Z" fill="#E0654F"/>
<path d="M137.739 55.498C137.297 55.498 136.933 55.8616 136.933 56.3031C136.933 56.7446 137.297 57.1082 137.739 57.1082C138.181 57.1082 138.545 56.7446 138.545 56.3031C138.545 55.8616 138.181 55.498 137.739 55.498Z" fill="#E0654F"/>
<path d="M129.078 76.7152C127.752 76.3517 126.399 77.1567 126.035 78.4552C125.671 79.7797 126.477 81.1301 127.778 81.4937C129.104 81.8572 130.456 81.0522 130.821 79.7537C131.185 78.4292 130.404 77.0788 129.078 76.7152Z" fill="#F57F2A"/>
<path d="M131.471 67.8338C130.613 67.6 129.754 68.1194 129.52 68.9505C129.286 69.8075 129.806 70.6645 130.639 70.8982C131.497 71.1319 132.355 70.6125 132.589 69.7815C132.823 68.9505 132.329 68.0675 131.471 67.8338Z" fill="#F57F2A"/>
<path d="M133.395 60.6662C132.771 60.5104 132.147 60.874 131.991 61.4713C131.835 62.0945 132.199 62.7178 132.797 62.8736C133.421 63.0295 134.046 62.6659 134.202 62.0686C134.384 61.4713 134.02 60.848 133.395 60.6662Z" fill="#F57F2A"/>
<path d="M135.372 56.0696C135.476 55.68 135.242 55.2905 134.878 55.2126C134.514 55.1347 134.098 55.3424 134.02 55.706C133.942 56.0696 134.15 56.4851 134.514 56.563C134.878 56.6669 135.268 56.4591 135.372 56.0696Z" fill="#F57F2A"/>
<path d="M120.937 73.521C119.845 72.8977 118.441 73.2613 117.79 74.352C117.166 75.4428 117.53 76.8451 118.623 77.4944C119.715 78.1176 121.119 77.7541 121.77 76.6633C122.42 75.5726 122.03 74.1703 120.937 73.521Z" fill="#F89828"/>
<path d="M125.541 65.5743C124.865 65.1848 124.006 65.4185 123.616 66.0937C123.226 66.7689 123.46 67.6259 124.136 68.0155C124.813 68.405 125.671 68.1713 126.061 67.4961C126.451 66.8209 126.217 65.9639 125.541 65.5743Z" fill="#F89828"/>
<path d="M128.246 60.8998C128.766 61.1854 129.416 61.0296 129.702 60.5102C129.988 59.9908 129.832 59.3416 129.312 59.0559C128.792 58.7703 128.142 58.9261 127.856 59.4455C127.57 59.9649 127.726 60.6141 128.246 60.8998Z" fill="#F89828"/>
<path d="M132.147 54.1478C131.861 53.966 131.471 54.0699 131.315 54.3815C131.133 54.6672 131.237 55.0567 131.549 55.2126C131.835 55.3943 132.225 55.2905 132.381 54.9788C132.537 54.7191 132.433 54.3296 132.147 54.1478Z" fill="#F89828"/>
<path d="M110.846 68.3013C110.014 69.1323 110.014 70.4827 110.846 71.3137C111.678 72.1448 113.031 72.1448 113.863 71.3137C114.695 70.4827 114.695 69.1323 113.863 68.3013C113.031 67.4702 111.678 67.4702 110.846 68.3013Z" fill="#FEC127"/>
<path d="M118.623 61.8088C118.128 62.3022 118.128 63.0813 118.623 63.5488C119.117 64.0422 119.897 64.0422 120.365 63.5488C120.833 63.0553 120.859 62.2762 120.365 61.8088C119.897 61.3154 119.091 61.3154 118.623 61.8088Z" fill="#FEC127"/>
<path d="M124.37 56.433C123.98 56.8226 123.98 57.4199 124.37 57.8094C124.761 58.199 125.359 58.199 125.749 57.8094C126.139 57.4199 126.139 56.8226 125.749 56.433C125.359 56.0435 124.735 56.0435 124.37 56.433Z" fill="#FEC127"/>
<path d="M129.754 52.4337C129.546 52.226 129.208 52.2519 129.026 52.4597C128.818 52.6674 128.844 53.0051 129.052 53.1868C129.26 53.3686 129.572 53.3686 129.78 53.1868C129.962 52.9791 129.962 52.6415 129.754 52.4337Z" fill="#FEC127"/>
<path d="M105.67 60.6922C104.734 61.2375 104.422 62.4062 104.968 63.3411C105.514 64.276 106.685 64.5876 107.621 64.0423C108.557 63.4969 108.869 62.3283 108.323 61.3934C107.803 60.4585 106.607 60.1468 105.67 60.6922Z" fill="#FED627"/>
<path d="M114.851 56.407C114.357 56.6927 114.175 57.3419 114.461 57.8613C114.747 58.3547 115.398 58.5365 115.918 58.2508C116.412 57.9652 116.594 57.3159 116.308 56.7965C116.022 56.3031 115.372 56.1213 114.851 56.407Z" fill="#FED627"/>
<path d="M121.77 52.6414C121.354 52.8751 121.197 53.4205 121.458 53.836C121.692 54.2515 122.238 54.4073 122.654 54.1476C123.07 53.9139 123.226 53.3685 122.966 52.953C122.732 52.5375 122.186 52.3817 121.77 52.6414Z" fill="#FED627"/>
<path d="M101.717 38.3321H104.838V50.3301H101.717V38.3321ZM103.616 32.9823C102.653 32.7226 101.665 33.294 101.405 34.2549C101.145 35.2157 101.717 36.2026 102.679 36.4623C103.642 36.722 104.63 36.1506 104.89 35.1898C105.15 34.2289 104.578 33.2161 103.616 32.9823ZM114.487 50.5898C113.733 50.5898 112.979 50.4599 112.277 50.1483C111.652 49.8626 111.106 49.4211 110.69 48.8758V56.3291H107.647V38.3321H110.664V39.9941C111.054 39.3968 111.6 38.9294 112.251 38.5918C112.927 38.2542 113.681 38.0724 114.461 38.0724C115.215 38.0724 115.944 38.2282 116.646 38.5139C117.348 38.7995 117.972 39.241 118.493 39.7604C119.039 40.3318 119.481 41.007 119.767 41.7341C120.105 42.5651 120.261 43.4221 120.235 44.3051C120.261 45.1881 120.079 46.071 119.741 46.9021C119.429 47.6292 118.987 48.3044 118.441 48.8758C117.426 49.9665 115.97 50.5898 114.487 50.5898ZM113.863 47.6812C114.305 47.6812 114.747 47.6033 115.163 47.4215C115.554 47.2397 115.918 47.006 116.23 46.6943C116.542 46.3827 116.776 46.0191 116.932 45.6296C117.27 44.7726 117.27 43.8377 116.932 42.9807C116.776 42.5911 116.516 42.2275 116.23 41.9159C115.918 41.6043 115.554 41.3705 115.163 41.1888C114.747 41.007 114.305 40.9291 113.863 40.9291C112.979 40.9291 112.12 41.2926 111.47 41.9159C111.158 42.2275 110.924 42.5911 110.768 42.9807C110.43 43.8377 110.43 44.7726 110.768 45.6036C110.924 45.9931 111.158 46.3567 111.47 46.6683C112.12 47.3436 112.979 47.7071 113.863 47.6812ZM122.472 38.3321H125.489V40.1759C125.749 39.5267 126.191 38.9813 126.789 38.6178C127.413 38.2801 128.09 38.0984 128.818 38.1243C129.208 38.1243 129.572 38.1763 129.936 38.2542C130.248 38.3321 130.561 38.436 130.847 38.5918L129.728 41.6043C129.52 41.4744 129.286 41.3705 129.052 41.2926C128.74 41.2147 128.428 41.1628 128.116 41.1628C127.413 41.1368 126.737 41.3705 126.217 41.812C125.749 42.2535 125.515 42.9807 125.515 43.9675V50.3041H122.472V38.3321ZM137.635 50.5898C136.777 50.5898 135.918 50.4339 135.112 50.0963C134.358 49.7847 133.682 49.3173 133.083 48.7459C131.913 47.5773 131.263 45.9931 131.263 44.3311C131.263 43.5001 131.419 42.669 131.731 41.8899C132.043 41.1368 132.485 40.4616 133.057 39.8903C135.58 37.4491 139.585 37.4491 142.108 39.8903C143.279 41.0589 143.955 42.6431 143.955 44.3051C143.955 45.1361 143.799 45.9672 143.461 46.7203C143.149 47.4734 142.68 48.1486 142.134 48.7199C141.562 49.2913 140.886 49.7587 140.106 50.0704C139.351 50.408 138.493 50.5898 137.635 50.5898ZM137.661 47.6812C138.103 47.6812 138.545 47.6033 138.961 47.4215C139.351 47.2397 139.689 47.006 140.002 46.7203C140.314 46.4087 140.548 46.0451 140.704 45.6555C141.042 44.7985 141.042 43.8636 140.704 43.0326C140.548 42.6431 140.314 42.2795 140.002 41.9678C139.689 41.6562 139.351 41.4225 138.961 41.2667C138.129 40.9031 137.193 40.9031 136.386 41.2667C135.996 41.4484 135.658 41.6822 135.346 41.9678C135.034 42.2795 134.8 42.6431 134.644 43.0326C134.306 43.8896 134.306 44.8245 134.644 45.6555C134.8 46.0451 135.034 46.4087 135.346 46.7203C135.658 47.0319 135.996 47.2656 136.386 47.4215C136.777 47.5773 137.219 47.6812 137.661 47.6812ZM80 38.3321H83.121L85.5398 45.9931L88.4007 38.3321H91.1056L93.9145 45.9931L96.4374 38.3321H99.5584L95.4751 50.3301H92.5881L89.7272 42.5132L86.8402 50.3301H83.9013L80 38.3321Z" fill="#351A55"/>
</g>
<defs>
<clipPath id="clip0_2504_349">
<rect width="98" height="77" fill="white" transform="translate(80 6)"/>
</clipPath>
</defs>
</svg>
